G04 Layer: BottomSolderMaskLayer*
G04 EasyEDA v6.3.43, 2020-05-28T19:53:23--7:00*
G04 7fdf06d367af498c9bd436b09c1433f1,d8a4e85e13c24898b9272ed7a7ead91d,10*
G04 Gerber Generator version 0.2*
G04 Scale: 100 percent, Rotated: No, Reflected: No *
G04 Dimensions in inches *
G04 leading zeros omitted , absolute positions ,2 integer and 4 decimal *
%FSLAX24Y24*%
%MOIN*%
G90*
G70D02*

%ADD27C,0.051307*%
%ADD28C,0.067000*%
%ADD32R,0.073000X0.073000*%
%ADD33C,0.073000*%

%LPD*%
G54D27*
G01X844Y5712D02*
G01X1356Y5712D01*
G01X844Y3487D02*
G01X1356Y3487D01*
G54D28*
G01X2100Y21550D03*
G01X3050Y20600D03*
G01X3050Y19600D03*
G01X3050Y18600D03*
G01X2050Y20600D03*
G01X2050Y19600D03*
G01X3050Y17600D03*
G01X2050Y18600D03*
G01X2050Y17600D03*
G01X3050Y16600D03*
G36*
G01X6423Y15863D02*
G01X6423Y16415D01*
G01X6976Y16415D01*
G01X6976Y15863D01*
G01X6423Y15863D01*
G37*
G36*
G01X6423Y16653D02*
G01X6423Y17205D01*
G01X6976Y17205D01*
G01X6976Y16653D01*
G01X6423Y16653D01*
G37*
G36*
G01X6423Y17444D02*
G01X6423Y17996D01*
G01X6976Y17996D01*
G01X6976Y17444D01*
G01X6423Y17444D01*
G37*
G36*
G01X6423Y18234D02*
G01X6423Y18786D01*
G01X6976Y18786D01*
G01X6976Y18234D01*
G01X6423Y18234D01*
G37*
G36*
G01X6423Y19013D02*
G01X6423Y19565D01*
G01X6976Y19565D01*
G01X6976Y19013D01*
G01X6423Y19013D01*
G37*
G36*
G01X6423Y19803D02*
G01X6423Y20355D01*
G01X6976Y20355D01*
G01X6976Y19803D01*
G01X6423Y19803D01*
G37*
G36*
G01X6423Y20594D02*
G01X6423Y21146D01*
G01X6976Y21146D01*
G01X6976Y20594D01*
G01X6423Y20594D01*
G37*
G36*
G01X6423Y21384D02*
G01X6423Y21936D01*
G01X6976Y21936D01*
G01X6976Y21384D01*
G01X6423Y21384D01*
G37*
G54D32*
G01X12200Y1850D03*
G54D33*
G01X12200Y2850D03*
G01X13200Y1850D03*
G01X13200Y2850D03*
G01X14200Y1850D03*
G01X14200Y2850D03*
G01X15200Y1850D03*
G01X15200Y2850D03*
G01X16200Y1850D03*
G01X16200Y2850D03*
G01X17200Y1850D03*
G01X17200Y2850D03*
G01X18200Y1850D03*
G01X18200Y2850D03*
G01X19200Y1850D03*
G01X19200Y2850D03*
G01X20200Y1850D03*
G01X20200Y2850D03*
G01X21200Y1850D03*
G01X21200Y2850D03*
G01X22200Y1850D03*
G01X22200Y2850D03*
G01X23200Y1850D03*
G01X23200Y2850D03*
G01X24200Y1850D03*
G01X24200Y2850D03*
G01X25200Y1850D03*
G01X25200Y2850D03*
G01X26200Y1850D03*
G01X26200Y2850D03*
G01X27200Y1850D03*
G01X27200Y2850D03*
G01X28200Y1850D03*
G01X28200Y2850D03*
G01X29200Y1850D03*
G01X29200Y2850D03*
G01X30200Y1850D03*
G01X30200Y2850D03*
G01X31200Y1850D03*
G01X31200Y2850D03*
G01X32200Y1850D03*
G01X32200Y2850D03*
G01X33200Y1850D03*
G01X33200Y2850D03*
G01X34200Y1850D03*
G01X34200Y2850D03*
G54D32*
G01X9600Y24800D03*
G54D33*
G01X9600Y25800D03*
G01X10600Y24800D03*
G01X10600Y25800D03*
G01X11600Y24800D03*
G01X11600Y25800D03*
G01X12600Y24800D03*
G01X12600Y25800D03*
G01X13600Y24800D03*
G01X13600Y25800D03*
G01X14600Y24800D03*
G01X14600Y25800D03*
G01X15600Y24800D03*
G01X15600Y25800D03*
G01X16600Y24800D03*
G01X16600Y25800D03*
G01X17600Y24800D03*
G01X17600Y25800D03*
G01X18600Y24800D03*
G01X18600Y25800D03*
G01X19600Y24800D03*
G01X19600Y25800D03*
G01X20600Y24800D03*
G01X20600Y25800D03*
G01X21600Y24800D03*
G01X21600Y25800D03*
G01X22600Y24800D03*
G01X22600Y25800D03*
G01X23600Y24800D03*
G01X23600Y25800D03*
G01X24600Y24800D03*
G01X24600Y25800D03*
G01X25600Y24800D03*
G01X25600Y25800D03*
G01X26600Y24800D03*
G01X26600Y25800D03*
G01X27600Y24800D03*
G01X27600Y25800D03*
G01X28600Y24800D03*
G01X28600Y25800D03*
G01X29600Y24800D03*
G01X29600Y25800D03*
G01X30600Y24800D03*
G01X30600Y25800D03*
G01X31600Y24800D03*
G01X31600Y25800D03*
G36*
G01X13214Y9965D02*
G01X13214Y10634D01*
G01X13885Y10634D01*
G01X13885Y9965D01*
G01X13214Y9965D01*
G37*
G54D28*
G01X13550Y11300D03*
G01X14550Y10300D03*
G01X14550Y11300D03*
G01X15550Y10300D03*
G01X15550Y11300D03*
G01X16550Y10300D03*
G01X16550Y11300D03*
G01X17550Y10300D03*
G01X17550Y11300D03*
G01X18550Y10300D03*
G01X18550Y11300D03*
G01X19550Y10300D03*
G01X19550Y11300D03*
G01X20550Y10300D03*
G01X20550Y11300D03*
G01X21550Y10300D03*
G01X21550Y11300D03*
G01X22550Y10300D03*
G01X22550Y11300D03*
G01X23550Y10300D03*
G01X23550Y11300D03*
G01X24550Y10300D03*
G01X24550Y11300D03*
G01X25550Y10300D03*
G01X25550Y11300D03*
G01X26550Y10300D03*
G01X26550Y11300D03*
G01X27550Y10300D03*
G01X27550Y11300D03*
G01X28550Y10300D03*
G01X28550Y11300D03*
G01X29550Y10300D03*
G01X29550Y11300D03*
G01X30550Y10300D03*
G01X30550Y11300D03*
G01X31550Y11300D03*
G01X31550Y10300D03*
G01X32550Y11300D03*
G01X32550Y10300D03*
M00*
M02*
