G04 Layer: BottomLayer*
G04 EasyEDA v6.3.43, 2020-05-28T19:53:23--7:00*
G04 7fdf06d367af498c9bd436b09c1433f1,d8a4e85e13c24898b9272ed7a7ead91d,10*
G04 Gerber Generator version 0.2*
G04 Scale: 100 percent, Rotated: No, Reflected: No *
G04 Dimensions in inches *
G04 leading zeros omitted , absolute positions ,2 integer and 4 decimal *
%FSLAX24Y24*%
%MOIN*%
G90*
G70D02*

%ADD17C,0.059000*%
%ADD18R,0.047200X0.047200*%
%ADD20C,0.065000*%
%ADD21R,0.059000X0.059000*%
%ADD22C,0.043307*%

%LPD*%
G54D17*
G01X2100Y21550D03*
G01X3050Y20600D03*
G01X3050Y19600D03*
G01X3050Y18600D03*
G01X2050Y20600D03*
G01X2050Y19600D03*
G01X3050Y17600D03*
G01X2050Y18600D03*
G01X2050Y17600D03*
G01X3050Y16600D03*
G54D18*
G01X6700Y16140D03*
G01X6700Y16930D03*
G01X6700Y17719D03*
G01X6700Y18509D03*
G01X6700Y19290D03*
G01X6700Y20080D03*
G01X6700Y20869D03*
G01X6700Y21659D03*
G36*
G01X11875Y2175D02*
G01X11875Y1525D01*
G01X12525Y1525D01*
G01X12525Y2175D01*
G01X11875Y2175D01*
G37*
G54D20*
G01X12200Y2850D03*
G01X13200Y1850D03*
G01X13200Y2850D03*
G01X14200Y1850D03*
G01X14200Y2850D03*
G01X15200Y1850D03*
G01X15200Y2850D03*
G01X16200Y1850D03*
G01X16200Y2850D03*
G01X17200Y1850D03*
G01X17200Y2850D03*
G01X18200Y1850D03*
G01X18200Y2850D03*
G01X19200Y1850D03*
G01X19200Y2850D03*
G01X20200Y1850D03*
G01X20200Y2850D03*
G01X21200Y1850D03*
G01X21200Y2850D03*
G01X22200Y1850D03*
G01X22200Y2850D03*
G01X23200Y1850D03*
G01X23200Y2850D03*
G01X24200Y1850D03*
G01X24200Y2850D03*
G01X25200Y1850D03*
G01X25200Y2850D03*
G01X26200Y1850D03*
G01X26200Y2850D03*
G01X27200Y1850D03*
G01X27200Y2850D03*
G01X28200Y1850D03*
G01X28200Y2850D03*
G01X29200Y1850D03*
G01X29200Y2850D03*
G01X30200Y1850D03*
G01X30200Y2850D03*
G01X31200Y1850D03*
G01X31200Y2850D03*
G01X32200Y1850D03*
G01X32200Y2850D03*
G01X33200Y1850D03*
G01X33200Y2850D03*
G01X34200Y1850D03*
G01X34200Y2850D03*
G36*
G01X9275Y25125D02*
G01X9275Y24475D01*
G01X9925Y24475D01*
G01X9925Y25125D01*
G01X9275Y25125D01*
G37*
G01X9600Y25800D03*
G01X10600Y24800D03*
G01X10600Y25800D03*
G01X11600Y24800D03*
G01X11600Y25800D03*
G01X12600Y24800D03*
G01X12600Y25800D03*
G01X13600Y24800D03*
G01X13600Y25800D03*
G01X14600Y24800D03*
G01X14600Y25800D03*
G01X15600Y24800D03*
G01X15600Y25800D03*
G01X16600Y24800D03*
G01X16600Y25800D03*
G01X17600Y24800D03*
G01X17600Y25800D03*
G01X18600Y24800D03*
G01X18600Y25800D03*
G01X19600Y24800D03*
G01X19600Y25800D03*
G01X20600Y24800D03*
G01X20600Y25800D03*
G01X21600Y24800D03*
G01X21600Y25800D03*
G01X22600Y24800D03*
G01X22600Y25800D03*
G01X23600Y24800D03*
G01X23600Y25800D03*
G01X24600Y24800D03*
G01X24600Y25800D03*
G01X25600Y24800D03*
G01X25600Y25800D03*
G01X26600Y24800D03*
G01X26600Y25800D03*
G01X27600Y24800D03*
G01X27600Y25800D03*
G01X28600Y24800D03*
G01X28600Y25800D03*
G01X29600Y24800D03*
G01X29600Y25800D03*
G01X30600Y24800D03*
G01X30600Y25800D03*
G01X31600Y24800D03*
G01X31600Y25800D03*
G54D21*
G01X13550Y10300D03*
G54D17*
G01X13550Y11300D03*
G01X14550Y10300D03*
G01X14550Y11300D03*
G01X15550Y10300D03*
G01X15550Y11300D03*
G01X16550Y10300D03*
G01X16550Y11300D03*
G01X17550Y10300D03*
G01X17550Y11300D03*
G01X18550Y10300D03*
G01X18550Y11300D03*
G01X19550Y10300D03*
G01X19550Y11300D03*
G01X20550Y10300D03*
G01X20550Y11300D03*
G01X21550Y10300D03*
G01X21550Y11300D03*
G01X22550Y10300D03*
G01X22550Y11300D03*
G01X23550Y10300D03*
G01X23550Y11300D03*
G01X24550Y10300D03*
G01X24550Y11300D03*
G01X25550Y10300D03*
G01X25550Y11300D03*
G01X26550Y10300D03*
G01X26550Y11300D03*
G01X27550Y10300D03*
G01X27550Y11300D03*
G01X28550Y10300D03*
G01X28550Y11300D03*
G01X29550Y10300D03*
G01X29550Y11300D03*
G01X30550Y10300D03*
G01X30550Y11300D03*
G01X31550Y11300D03*
G01X31550Y10300D03*
G01X32550Y11300D03*
G01X32550Y10300D03*
G54D22*
G01X844Y5712D02*
G01X1356Y5712D01*
G01X844Y3487D02*
G01X1356Y3487D01*
M00*
M02*
