;Layer: Drill PTH
;EasyEDA v6.3.43, 2020-05-28T19:53:23--7:00
;7fdf06d367af498c9bd436b09c1433f1,d8a4e85e13c24898b9272ed7a7ead91d,10
;Gerber Generator version 0.2
M48
INCH,LZ,00.0000
;Holesize 1 = 0.024 INCH
T01C0.024
;Holesize 2 = 0.032 INCH
T02C0.032
;Holesize 3 = 0.036 INCH
T03C0.036
;Holesize 4 = 0.039 INCH
T04C0.039
%
G05
G90
T01
X+001336Y+005712G85X+000864Y+005712
X+001336Y+003487G85X+000864Y+003487
T02
X+006700Y+016140
X+006700Y+016930
X+006700Y+017719
X+006700Y+018509
X+006700Y+019290
X+006700Y+020080
X+006700Y+020869
X+006700Y+021659
T03
X+002100Y+021550
X+003050Y+020600
X+003050Y+019600
X+003050Y+018600
X+002050Y+020600
X+002050Y+019600
X+003050Y+017600
X+002050Y+018600
X+002050Y+017600
X+003050Y+016600
X+013550Y+010300
X+013550Y+011300
X+014550Y+010300
X+014550Y+011300
X+015550Y+010300
X+015550Y+011300
X+016550Y+010300
X+016550Y+011300
X+017550Y+010300
X+017550Y+011300
X+018550Y+010300
X+018550Y+011300
X+019550Y+010300
X+019550Y+011300
X+020550Y+010300
X+020550Y+011300
X+021550Y+010300
X+021550Y+011300
X+022550Y+010300
X+022550Y+011300
X+023550Y+010300
X+023550Y+011300
X+024550Y+010300
X+024550Y+011300
X+025550Y+010300
X+025550Y+011300
X+026550Y+010300
X+026550Y+011300
X+027550Y+010300
X+027550Y+011300
X+028550Y+010300
X+028550Y+011300
X+029550Y+010300
X+029550Y+011300
X+030550Y+010300
X+030550Y+011300
X+031550Y+011300
X+031550Y+010300
X+032550Y+011300
X+032550Y+010300
T04
X+012200Y+001850
X+012200Y+002850
X+013200Y+001850
X+013200Y+002850
X+014200Y+001850
X+014200Y+002850
X+015200Y+001850
X+015200Y+002850
X+016200Y+001850
X+016200Y+002850
X+017200Y+001850
X+017200Y+002850
X+018200Y+001850
X+018200Y+002850
X+019200Y+001850
X+019200Y+002850
X+020200Y+001850
X+020200Y+002850
X+021200Y+001850
X+021200Y+002850
X+022200Y+001850
X+022200Y+002850
X+023200Y+001850
X+023200Y+002850
X+024200Y+001850
X+024200Y+002850
X+025200Y+001850
X+025200Y+002850
X+026200Y+001850
X+026200Y+002850
X+027200Y+001850
X+027200Y+002850
X+028200Y+001850
X+028200Y+002850
X+029200Y+001850
X+029200Y+002850
X+030200Y+001850
X+030200Y+002850
X+031200Y+001850
X+031200Y+002850
X+032200Y+001850
X+032200Y+002850
X+033200Y+001850
X+033200Y+002850
X+034200Y+001850
X+034200Y+002850
X+009600Y+024800
X+009600Y+025800
X+010600Y+024800
X+010600Y+025800
X+011600Y+024800
X+011600Y+025800
X+012600Y+024800
X+012600Y+025800
X+013600Y+024800
X+013600Y+025800
X+014600Y+024800
X+014600Y+025800
X+015600Y+024800
X+015600Y+025800
X+016600Y+024800
X+016600Y+025800
X+017600Y+024800
X+017600Y+025800
X+018600Y+024800
X+018600Y+025800
X+019600Y+024800
X+019600Y+025800
X+020600Y+024800
X+020600Y+025800
X+021600Y+024800
X+021600Y+025800
X+022600Y+024800
X+022600Y+025800
X+023600Y+024800
X+023600Y+025800
X+024600Y+024800
X+024600Y+025800
X+025600Y+024800
X+025600Y+025800
X+026600Y+024800
X+026600Y+025800
X+027600Y+024800
X+027600Y+025800
X+028600Y+024800
X+028600Y+025800
X+029600Y+024800
X+029600Y+025800
X+030600Y+024800
X+030600Y+025800
X+031600Y+024800
X+031600Y+025800
M30
