G04 Layer: TopLayer*
G04 EasyEDA v6.3.43, 2020-05-28T19:53:23--7:00*
G04 7fdf06d367af498c9bd436b09c1433f1,d8a4e85e13c24898b9272ed7a7ead91d,10*
G04 Gerber Generator version 0.2*
G04 Scale: 100 percent, Rotated: No, Reflected: No *
G04 Dimensions in inches *
G04 leading zeros omitted , absolute positions ,2 integer and 4 decimal *
%FSLAX24Y24*%
%MOIN*%
G90*
G70D02*

%ADD10C,0.010000*%
%ADD11C,0.005000*%
%ADD12R,0.011811X0.015748*%
%ADD13R,0.086600X0.023600*%
%ADD14R,0.082677X0.015748*%
%ADD15R,0.039370X0.059055*%
%ADD16R,0.074803X0.074803*%
%ADD17C,0.059000*%
%ADD18R,0.047200X0.047200*%
%ADD20C,0.065000*%
%ADD21R,0.059000X0.059000*%
%ADD22C,0.043307*%

%LPD*%

%LPD*%
G36*
G01X10347Y24003D02*
G01X10294Y24003D01*
G01X10270Y24002D01*
G01X10247Y24002D01*
G01X10228Y24001D01*
G01X10211Y24001D01*
G01X10200Y24000D01*
G01X10178Y23997D01*
G01X10157Y23993D01*
G01X10135Y23989D01*
G01X10114Y23984D01*
G01X10091Y23979D01*
G01X10069Y23973D01*
G01X10047Y23966D01*
G01X10024Y23959D01*
G01X10002Y23951D01*
G01X9979Y23942D01*
G01X9957Y23933D01*
G01X9934Y23924D01*
G01X9912Y23914D01*
G01X9868Y23892D01*
G01X9847Y23881D01*
G01X9805Y23857D01*
G01X9765Y23831D01*
G01X9727Y23803D01*
G01X9709Y23790D01*
G01X9692Y23775D01*
G01X9674Y23760D01*
G01X9657Y23744D01*
G01X9640Y23729D01*
G01X9608Y23697D01*
G01X9593Y23680D01*
G01X9577Y23663D01*
G01X9535Y23612D01*
G01X9522Y23594D01*
G01X9510Y23576D01*
G01X9497Y23558D01*
G01X9485Y23539D01*
G01X9463Y23501D01*
G01X9452Y23481D01*
G01X9442Y23461D01*
G01X9432Y23440D01*
G01X9422Y23420D01*
G01X9413Y23399D01*
G01X9404Y23377D01*
G01X9380Y23311D01*
G01X9373Y23288D01*
G01X9366Y23264D01*
G01X9360Y23240D01*
G01X9352Y23214D01*
G01X9347Y23192D01*
G01X9344Y23172D01*
G01X9341Y23151D01*
G01X9339Y23126D01*
G01X9339Y23055D01*
G01X9338Y23004D01*
G01X9339Y22953D01*
G01X9339Y22882D01*
G01X9341Y22857D01*
G01X9344Y22836D01*
G01X9347Y22816D01*
G01X9352Y22794D01*
G01X9360Y22768D01*
G01X9366Y22743D01*
G01X9373Y22719D01*
G01X9387Y22675D01*
G01X9395Y22654D01*
G01X9402Y22633D01*
G01X9410Y22613D01*
G01X9419Y22594D01*
G01X9427Y22575D01*
G01X9436Y22556D01*
G01X9446Y22537D01*
G01X9456Y22519D01*
G01X9467Y22500D01*
G01X9478Y22482D01*
G01X9490Y22463D01*
G01X9503Y22443D01*
G01X9516Y22424D01*
G01X9530Y22405D01*
G01X9543Y22387D01*
G01X9558Y22369D01*
G01X9572Y22352D01*
G01X9587Y22334D01*
G01X9602Y22318D01*
G01X9618Y22301D01*
G01X9634Y22286D01*
G01X9650Y22270D01*
G01X9666Y22255D01*
G01X9683Y22240D01*
G01X9700Y22226D01*
G01X9736Y22198D01*
G01X9754Y22185D01*
G01X9773Y22172D01*
G01X9811Y22148D01*
G01X9831Y22136D01*
G01X9851Y22125D01*
G01X9871Y22115D01*
G01X9892Y22104D01*
G01X9913Y22094D01*
G01X9934Y22085D01*
G01X9956Y22076D01*
G01X9977Y22067D01*
G01X10000Y22059D01*
G01X10022Y22051D01*
G01X10046Y22043D01*
G01X10069Y22036D01*
G01X10093Y22029D01*
G01X10113Y22024D01*
G01X10134Y22020D01*
G01X10157Y22016D01*
G01X10181Y22012D01*
G01X10205Y22009D01*
G01X10231Y22007D01*
G01X10256Y22005D01*
G01X10310Y22003D01*
G01X10363Y22003D01*
G01X10417Y22005D01*
G01X10443Y22007D01*
G01X10468Y22009D01*
G01X10493Y22012D01*
G01X10539Y22020D01*
G01X10560Y22024D01*
G01X10580Y22029D01*
G01X10604Y22036D01*
G01X10627Y22043D01*
G01X10651Y22051D01*
G01X10673Y22059D01*
G01X10696Y22067D01*
G01X10718Y22076D01*
G01X10739Y22085D01*
G01X10761Y22094D01*
G01X10782Y22104D01*
G01X10802Y22115D01*
G01X10823Y22126D01*
G01X10843Y22136D01*
G01X10881Y22160D01*
G01X10901Y22173D01*
G01X10919Y22185D01*
G01X10937Y22198D01*
G01X10973Y22226D01*
G01X10990Y22240D01*
G01X11007Y22255D01*
G01X11023Y22270D01*
G01X11040Y22286D01*
G01X11056Y22302D01*
G01X11086Y22334D01*
G01X11101Y22352D01*
G01X11115Y22369D01*
G01X11130Y22387D01*
G01X11143Y22405D01*
G01X11157Y22424D01*
G01X11170Y22443D01*
G01X11184Y22465D01*
G01X11198Y22486D01*
G01X11210Y22508D01*
G01X11223Y22530D01*
G01X11256Y22596D01*
G01X11265Y22618D01*
G01X11274Y22641D01*
G01X11283Y22663D01*
G01X11290Y22686D01*
G01X11298Y22709D01*
G01X11310Y22755D01*
G01X11316Y22779D01*
G01X11321Y22803D01*
G01X11325Y22827D01*
G01X11328Y22851D01*
G01X11334Y22901D01*
G01X11336Y22926D01*
G01X11338Y22978D01*
G01X11338Y23030D01*
G01X11337Y23057D01*
G01X11336Y23082D01*
G01X11334Y23107D01*
G01X11325Y23182D01*
G01X11321Y23206D01*
G01X11316Y23230D01*
G01X11310Y23253D01*
G01X11304Y23277D01*
G01X11290Y23323D01*
G01X11282Y23345D01*
G01X11274Y23368D01*
G01X11265Y23390D01*
G01X11245Y23434D01*
G01X11223Y23478D01*
G01X11197Y23522D01*
G01X11184Y23543D01*
G01X11170Y23565D01*
G01X11156Y23584D01*
G01X11143Y23603D01*
G01X11129Y23622D01*
G01X11115Y23640D01*
G01X11100Y23658D01*
G01X11070Y23692D01*
G01X11054Y23708D01*
G01X11038Y23725D01*
G01X11022Y23740D01*
G01X10988Y23770D01*
G01X10971Y23784D01*
G01X10935Y23812D01*
G01X10916Y23825D01*
G01X10898Y23838D01*
G01X10878Y23850D01*
G01X10859Y23862D01*
G01X10839Y23874D01*
G01X10799Y23896D01*
G01X10778Y23906D01*
G01X10757Y23915D01*
G01X10736Y23925D01*
G01X10714Y23934D01*
G01X10692Y23942D01*
G01X10669Y23951D01*
G01X10647Y23959D01*
G01X10623Y23966D01*
G01X10600Y23973D01*
G01X10532Y23990D01*
G01X10512Y23994D01*
G01X10492Y23996D01*
G01X10470Y23998D01*
G01X10443Y24000D01*
G01X10412Y24001D01*
G01X10373Y24002D01*
G01X10347Y24003D01*
G37*

%LPC*%
G36*
G01X10381Y23718D02*
G01X10304Y23718D01*
G01X10281Y23717D01*
G01X10261Y23716D01*
G01X10243Y23715D01*
G01X10207Y23709D01*
G01X10188Y23704D01*
G01X10166Y23699D01*
G01X10142Y23692D01*
G01X10094Y23676D01*
G01X10048Y23658D01*
G01X10026Y23648D01*
G01X10005Y23636D01*
G01X9983Y23625D01*
G01X9963Y23613D01*
G01X9942Y23600D01*
G01X9922Y23586D01*
G01X9884Y23556D01*
G01X9865Y23540D01*
G01X9829Y23506D01*
G01X9812Y23489D01*
G01X9797Y23471D01*
G01X9781Y23454D01*
G01X9753Y23418D01*
G01X9740Y23400D01*
G01X9727Y23381D01*
G01X9694Y23324D01*
G01X9684Y23304D01*
G01X9675Y23284D01*
G01X9659Y23244D01*
G01X9652Y23223D01*
G01X9646Y23203D01*
G01X9640Y23181D01*
G01X9635Y23160D01*
G01X9630Y23138D01*
G01X9627Y23116D01*
G01X9623Y23094D01*
G01X9621Y23072D01*
G01X9619Y23049D01*
G01X9618Y23026D01*
G01X9618Y22980D01*
G01X9619Y22956D01*
G01X9621Y22932D01*
G01X9623Y22910D01*
G01X9626Y22888D01*
G01X9630Y22866D01*
G01X9635Y22844D01*
G01X9640Y22823D01*
G01X9646Y22801D01*
G01X9652Y22780D01*
G01X9668Y22738D01*
G01X9677Y22718D01*
G01X9686Y22697D01*
G01X9696Y22677D01*
G01X9707Y22658D01*
G01X9718Y22638D01*
G01X9731Y22619D01*
G01X9743Y22601D01*
G01X9757Y22582D01*
G01X9771Y22564D01*
G01X9785Y22547D01*
G01X9800Y22530D01*
G01X9832Y22496D01*
G01X9849Y22480D01*
G01X9885Y22450D01*
G01X9903Y22436D01*
G01X9922Y22422D01*
G01X9942Y22409D01*
G01X9965Y22393D01*
G01X9989Y22380D01*
G01X10012Y22367D01*
G01X10036Y22355D01*
G01X10061Y22344D01*
G01X10088Y22334D01*
G01X10116Y22324D01*
G01X10146Y22315D01*
G01X10167Y22309D01*
G01X10185Y22304D01*
G01X10202Y22300D01*
G01X10219Y22297D01*
G01X10238Y22295D01*
G01X10260Y22294D01*
G01X10285Y22292D01*
G01X10317Y22292D01*
G01X10350Y22291D01*
G01X10376Y22290D01*
G01X10397Y22291D01*
G01X10416Y22292D01*
G01X10434Y22294D01*
G01X10452Y22298D01*
G01X10473Y22303D01*
G01X10498Y22309D01*
G01X10520Y22315D01*
G01X10543Y22322D01*
G01X10564Y22329D01*
G01X10586Y22337D01*
G01X10628Y22355D01*
G01X10668Y22375D01*
G01X10708Y22397D01*
G01X10727Y22409D01*
G01X10746Y22422D01*
G01X10778Y22444D01*
G01X10705Y22517D01*
G01X10664Y22490D01*
G01X10641Y22475D01*
G01X10617Y22461D01*
G01X10590Y22448D01*
G01X10563Y22437D01*
G01X10535Y22427D01*
G01X10508Y22418D01*
G01X10480Y22411D01*
G01X10453Y22406D01*
G01X10431Y22402D01*
G01X10385Y22398D01*
G01X10361Y22396D01*
G01X10315Y22396D01*
G01X10293Y22397D01*
G01X10270Y22398D01*
G01X10248Y22401D01*
G01X10227Y22403D01*
G01X10185Y22411D01*
G01X10166Y22415D01*
G01X10147Y22421D01*
G01X10129Y22427D01*
G01X10113Y22433D01*
G01X10103Y22437D01*
G01X10092Y22442D01*
G01X10070Y22450D01*
G01X10056Y22457D01*
G01X10038Y22467D01*
G01X10016Y22481D01*
G01X9992Y22496D01*
G01X9969Y22512D01*
G01X9947Y22528D01*
G01X9928Y22543D01*
G01X9913Y22556D01*
G01X9896Y22573D01*
G01X9878Y22593D01*
G01X9860Y22617D01*
G01X9842Y22642D01*
G01X9823Y22668D01*
G01X9807Y22695D01*
G01X9792Y22722D01*
G01X9778Y22747D01*
G01X9768Y22770D01*
G01X9750Y22818D01*
G01X9743Y22843D01*
G01X9737Y22868D01*
G01X9727Y22920D01*
G01X9723Y22972D01*
G01X9722Y22998D01*
G01X9722Y23025D01*
G01X9723Y23051D01*
G01X9729Y23103D01*
G01X9739Y23153D01*
G01X9746Y23178D01*
G01X9753Y23202D01*
G01X9762Y23226D01*
G01X9772Y23248D01*
G01X9783Y23271D01*
G01X9794Y23292D01*
G01X9806Y23313D01*
G01X9818Y23333D01*
G01X9831Y23353D01*
G01X9845Y23372D01*
G01X9860Y23390D01*
G01X9874Y23408D01*
G01X9889Y23425D01*
G01X9905Y23441D01*
G01X9922Y23457D01*
G01X9939Y23471D01*
G01X9956Y23486D01*
G01X9973Y23499D01*
G01X9992Y23512D01*
G01X10010Y23524D01*
G01X10029Y23535D01*
G01X10049Y23546D01*
G01X10069Y23555D01*
G01X10089Y23565D01*
G01X10110Y23573D01*
G01X10152Y23587D01*
G01X10174Y23593D01*
G01X10218Y23603D01*
G01X10240Y23607D01*
G01X10286Y23611D01*
G01X10310Y23613D01*
G01X10334Y23613D01*
G01X10357Y23612D01*
G01X10381Y23611D01*
G01X10406Y23609D01*
G01X10430Y23606D01*
G01X10455Y23602D01*
G01X10476Y23598D01*
G01X10496Y23593D01*
G01X10517Y23588D01*
G01X10536Y23581D01*
G01X10556Y23574D01*
G01X10576Y23566D01*
G01X10595Y23558D01*
G01X10614Y23549D01*
G01X10632Y23539D01*
G01X10683Y23506D01*
G01X10705Y23489D01*
G01X10741Y23527D01*
G01X10778Y23564D01*
G01X10746Y23586D01*
G01X10727Y23599D01*
G01X10708Y23611D01*
G01X10688Y23623D01*
G01X10668Y23634D01*
G01X10648Y23644D01*
G01X10628Y23653D01*
G01X10607Y23663D01*
G01X10565Y23679D01*
G01X10521Y23693D01*
G01X10499Y23699D01*
G01X10476Y23705D01*
G01X10456Y23709D01*
G01X10438Y23713D01*
G01X10402Y23717D01*
G01X10381Y23718D01*
G37*
G36*
G01X10490Y23345D02*
G01X10370Y23345D01*
G01X10359Y23326D01*
G01X10354Y23318D01*
G01X10347Y23308D01*
G01X10341Y23298D01*
G01X10335Y23290D01*
G01X10323Y23271D01*
G01X10418Y23271D01*
G01X10439Y23269D01*
G01X10452Y23267D01*
G01X10457Y23264D01*
G01X10455Y23259D01*
G01X10441Y23238D01*
G01X10431Y23226D01*
G01X10423Y23215D01*
G01X10411Y23202D01*
G01X10398Y23184D01*
G01X10383Y23165D01*
G01X10366Y23144D01*
G01X10348Y23122D01*
G01X10312Y23076D01*
G01X10293Y23053D01*
G01X10276Y23031D01*
G01X10260Y23010D01*
G01X10246Y22992D01*
G01X10215Y22952D01*
G01X10188Y22917D01*
G01X10165Y22887D01*
G01X10144Y22861D01*
G01X10127Y22838D01*
G01X10111Y22819D01*
G01X10098Y22802D01*
G01X10087Y22788D01*
G01X10077Y22776D01*
G01X10069Y22765D01*
G01X10061Y22755D01*
G01X10054Y22746D01*
G01X10043Y22734D01*
G01X10035Y22724D01*
G01X10027Y22715D01*
G01X10022Y22707D01*
G01X10019Y22701D01*
G01X10019Y22696D01*
G01X10023Y22692D01*
G01X10031Y22689D01*
G01X10043Y22686D01*
G01X10060Y22685D01*
G01X10083Y22684D01*
G01X10580Y22684D01*
G01X10599Y22713D01*
G01X10606Y22725D01*
G01X10612Y22736D01*
G01X10616Y22744D01*
G01X10617Y22750D01*
G01X10614Y22752D01*
G01X10604Y22753D01*
G01X10588Y22754D01*
G01X10564Y22755D01*
G01X10532Y22756D01*
G01X10492Y22757D01*
G01X10155Y22757D01*
G01X10187Y22799D01*
G01X10201Y22817D01*
G01X10214Y22834D01*
G01X10227Y22850D01*
G01X10236Y22861D01*
G01X10244Y22871D01*
G01X10253Y22882D01*
G01X10262Y22894D01*
G01X10270Y22904D01*
G01X10277Y22914D01*
G01X10286Y22926D01*
G01X10296Y22937D01*
G01X10303Y22946D01*
G01X10313Y22959D01*
G01X10326Y22974D01*
G01X10339Y22991D01*
G01X10353Y23010D01*
G01X10368Y23028D01*
G01X10381Y23045D01*
G01X10392Y23060D01*
G01X10400Y23071D01*
G01X10404Y23076D01*
G01X10410Y23084D01*
G01X10419Y23095D01*
G01X10429Y23108D01*
G01X10440Y23123D01*
G01X10454Y23141D01*
G01X10469Y23160D01*
G01X10485Y23180D01*
G01X10503Y23203D01*
G01X10522Y23226D01*
G01X10541Y23251D01*
G01X10562Y23277D01*
G01X10576Y23295D01*
G01X10589Y23312D01*
G01X10598Y23325D01*
G01X10604Y23333D01*
G01X10605Y23339D01*
G01X10592Y23343D01*
G01X10557Y23344D01*
G01X10490Y23345D01*
G37*
G36*
G01X10277Y23345D02*
G01X10185Y23345D01*
G01X10136Y23344D01*
G01X10107Y23343D01*
G01X10092Y23339D01*
G01X10085Y23333D01*
G01X10081Y23327D01*
G01X10076Y23317D01*
G01X10070Y23307D01*
G01X10063Y23296D01*
G01X10048Y23271D01*
G01X10236Y23275D01*
G01X10256Y23309D01*
G01X10277Y23345D01*
G37*

%LPD*%
G36*
G01X33555Y5703D02*
G01X33502Y5703D01*
G01X33476Y5702D01*
G01X33437Y5701D01*
G01X33406Y5700D01*
G01X33379Y5698D01*
G01X33357Y5696D01*
G01X33337Y5694D01*
G01X33317Y5690D01*
G01X33249Y5673D01*
G01X33226Y5666D01*
G01X33202Y5659D01*
G01X33180Y5651D01*
G01X33157Y5642D01*
G01X33135Y5634D01*
G01X33113Y5625D01*
G01X33092Y5615D01*
G01X33071Y5606D01*
G01X33050Y5596D01*
G01X33010Y5574D01*
G01X32990Y5562D01*
G01X32971Y5550D01*
G01X32951Y5538D01*
G01X32933Y5525D01*
G01X32914Y5512D01*
G01X32896Y5498D01*
G01X32879Y5484D01*
G01X32861Y5470D01*
G01X32827Y5440D01*
G01X32811Y5425D01*
G01X32795Y5408D01*
G01X32779Y5392D01*
G01X32749Y5358D01*
G01X32734Y5340D01*
G01X32720Y5322D01*
G01X32706Y5303D01*
G01X32693Y5284D01*
G01X32679Y5265D01*
G01X32665Y5243D01*
G01X32652Y5222D01*
G01X32626Y5178D01*
G01X32604Y5134D01*
G01X32584Y5090D01*
G01X32575Y5068D01*
G01X32567Y5045D01*
G01X32559Y5023D01*
G01X32552Y5000D01*
G01X32545Y4976D01*
G01X32533Y4930D01*
G01X32528Y4906D01*
G01X32524Y4882D01*
G01X32515Y4807D01*
G01X32513Y4782D01*
G01X32512Y4757D01*
G01X32511Y4730D01*
G01X32511Y4678D01*
G01X32513Y4626D01*
G01X32515Y4601D01*
G01X32521Y4551D01*
G01X32524Y4527D01*
G01X32528Y4503D01*
G01X32533Y4479D01*
G01X32539Y4455D01*
G01X32551Y4409D01*
G01X32559Y4386D01*
G01X32566Y4363D01*
G01X32575Y4341D01*
G01X32584Y4318D01*
G01X32593Y4296D01*
G01X32626Y4230D01*
G01X32639Y4208D01*
G01X32651Y4186D01*
G01X32665Y4165D01*
G01X32679Y4143D01*
G01X32692Y4124D01*
G01X32706Y4105D01*
G01X32719Y4087D01*
G01X32734Y4069D01*
G01X32748Y4052D01*
G01X32763Y4034D01*
G01X32778Y4018D01*
G01X32793Y4001D01*
G01X32809Y3986D01*
G01X32826Y3970D01*
G01X32842Y3955D01*
G01X32859Y3940D01*
G01X32876Y3926D01*
G01X32912Y3898D01*
G01X32930Y3885D01*
G01X32948Y3873D01*
G01X32968Y3860D01*
G01X33006Y3836D01*
G01X33026Y3826D01*
G01X33047Y3815D01*
G01X33067Y3804D01*
G01X33088Y3794D01*
G01X33110Y3785D01*
G01X33131Y3776D01*
G01X33153Y3767D01*
G01X33176Y3759D01*
G01X33198Y3751D01*
G01X33222Y3743D01*
G01X33245Y3736D01*
G01X33269Y3729D01*
G01X33289Y3724D01*
G01X33310Y3720D01*
G01X33356Y3712D01*
G01X33381Y3709D01*
G01X33406Y3707D01*
G01X33432Y3705D01*
G01X33486Y3703D01*
G01X33539Y3703D01*
G01X33593Y3705D01*
G01X33618Y3707D01*
G01X33644Y3709D01*
G01X33668Y3712D01*
G01X33692Y3716D01*
G01X33715Y3720D01*
G01X33736Y3724D01*
G01X33756Y3729D01*
G01X33804Y3743D01*
G01X33827Y3751D01*
G01X33849Y3759D01*
G01X33872Y3767D01*
G01X33893Y3776D01*
G01X33915Y3785D01*
G01X33936Y3794D01*
G01X33957Y3804D01*
G01X33978Y3815D01*
G01X33998Y3825D01*
G01X34018Y3836D01*
G01X34038Y3848D01*
G01X34076Y3872D01*
G01X34095Y3885D01*
G01X34113Y3898D01*
G01X34149Y3926D01*
G01X34166Y3940D01*
G01X34183Y3955D01*
G01X34199Y3970D01*
G01X34215Y3986D01*
G01X34231Y4001D01*
G01X34247Y4018D01*
G01X34262Y4034D01*
G01X34277Y4051D01*
G01X34291Y4069D01*
G01X34306Y4087D01*
G01X34319Y4105D01*
G01X34333Y4124D01*
G01X34346Y4143D01*
G01X34359Y4163D01*
G01X34371Y4182D01*
G01X34382Y4200D01*
G01X34393Y4219D01*
G01X34403Y4237D01*
G01X34413Y4256D01*
G01X34422Y4275D01*
G01X34430Y4294D01*
G01X34439Y4313D01*
G01X34447Y4333D01*
G01X34454Y4354D01*
G01X34462Y4375D01*
G01X34476Y4419D01*
G01X34483Y4443D01*
G01X34489Y4468D01*
G01X34497Y4494D01*
G01X34502Y4516D01*
G01X34505Y4536D01*
G01X34508Y4557D01*
G01X34510Y4582D01*
G01X34510Y4653D01*
G01X34511Y4704D01*
G01X34510Y4755D01*
G01X34510Y4826D01*
G01X34508Y4851D01*
G01X34505Y4872D01*
G01X34502Y4892D01*
G01X34497Y4914D01*
G01X34489Y4940D01*
G01X34483Y4964D01*
G01X34476Y4988D01*
G01X34469Y5011D01*
G01X34445Y5077D01*
G01X34436Y5099D01*
G01X34427Y5120D01*
G01X34417Y5140D01*
G01X34407Y5161D01*
G01X34397Y5181D01*
G01X34386Y5201D01*
G01X34364Y5239D01*
G01X34352Y5258D01*
G01X34339Y5276D01*
G01X34327Y5294D01*
G01X34314Y5312D01*
G01X34272Y5363D01*
G01X34256Y5380D01*
G01X34241Y5397D01*
G01X34209Y5429D01*
G01X34192Y5444D01*
G01X34175Y5460D01*
G01X34157Y5475D01*
G01X34140Y5490D01*
G01X34122Y5503D01*
G01X34084Y5531D01*
G01X34044Y5557D01*
G01X34002Y5581D01*
G01X33981Y5592D01*
G01X33937Y5614D01*
G01X33915Y5624D01*
G01X33892Y5633D01*
G01X33870Y5642D01*
G01X33847Y5651D01*
G01X33825Y5659D01*
G01X33802Y5666D01*
G01X33780Y5673D01*
G01X33758Y5679D01*
G01X33735Y5684D01*
G01X33714Y5689D01*
G01X33692Y5693D01*
G01X33671Y5697D01*
G01X33650Y5700D01*
G01X33638Y5701D01*
G01X33621Y5701D01*
G01X33602Y5702D01*
G01X33579Y5702D01*
G01X33555Y5703D01*
G37*

%LPC*%
G36*
G01X33545Y5418D02*
G01X33468Y5418D01*
G01X33447Y5417D01*
G01X33411Y5413D01*
G01X33393Y5409D01*
G01X33373Y5405D01*
G01X33350Y5399D01*
G01X33328Y5393D01*
G01X33284Y5379D01*
G01X33242Y5363D01*
G01X33221Y5353D01*
G01X33201Y5344D01*
G01X33181Y5334D01*
G01X33161Y5323D01*
G01X33141Y5311D01*
G01X33122Y5299D01*
G01X33103Y5286D01*
G01X33071Y5264D01*
G01X33108Y5227D01*
G01X33144Y5189D01*
G01X33166Y5206D01*
G01X33217Y5239D01*
G01X33235Y5249D01*
G01X33254Y5258D01*
G01X33273Y5266D01*
G01X33293Y5274D01*
G01X33313Y5281D01*
G01X33332Y5288D01*
G01X33353Y5293D01*
G01X33373Y5298D01*
G01X33394Y5302D01*
G01X33419Y5306D01*
G01X33443Y5309D01*
G01X33468Y5311D01*
G01X33492Y5312D01*
G01X33515Y5313D01*
G01X33539Y5313D01*
G01X33563Y5311D01*
G01X33609Y5307D01*
G01X33631Y5303D01*
G01X33654Y5298D01*
G01X33675Y5293D01*
G01X33697Y5287D01*
G01X33739Y5273D01*
G01X33760Y5265D01*
G01X33780Y5255D01*
G01X33800Y5246D01*
G01X33820Y5235D01*
G01X33839Y5224D01*
G01X33857Y5212D01*
G01X33876Y5199D01*
G01X33893Y5186D01*
G01X33910Y5171D01*
G01X33927Y5157D01*
G01X33944Y5141D01*
G01X33960Y5125D01*
G01X33975Y5108D01*
G01X33989Y5090D01*
G01X34004Y5072D01*
G01X34018Y5053D01*
G01X34031Y5033D01*
G01X34043Y5013D01*
G01X34055Y4992D01*
G01X34066Y4971D01*
G01X34077Y4948D01*
G01X34087Y4926D01*
G01X34096Y4902D01*
G01X34103Y4878D01*
G01X34110Y4853D01*
G01X34120Y4803D01*
G01X34126Y4751D01*
G01X34127Y4725D01*
G01X34127Y4698D01*
G01X34125Y4646D01*
G01X34122Y4620D01*
G01X34112Y4568D01*
G01X34106Y4543D01*
G01X34099Y4518D01*
G01X34081Y4470D01*
G01X34071Y4447D01*
G01X34057Y4422D01*
G01X34042Y4395D01*
G01X34026Y4368D01*
G01X34007Y4342D01*
G01X33989Y4317D01*
G01X33971Y4293D01*
G01X33953Y4273D01*
G01X33936Y4256D01*
G01X33921Y4243D01*
G01X33902Y4228D01*
G01X33880Y4212D01*
G01X33857Y4196D01*
G01X33833Y4181D01*
G01X33811Y4167D01*
G01X33793Y4157D01*
G01X33779Y4150D01*
G01X33757Y4142D01*
G01X33746Y4137D01*
G01X33736Y4133D01*
G01X33720Y4127D01*
G01X33702Y4121D01*
G01X33683Y4115D01*
G01X33664Y4111D01*
G01X33622Y4103D01*
G01X33601Y4101D01*
G01X33579Y4098D01*
G01X33556Y4097D01*
G01X33534Y4096D01*
G01X33488Y4096D01*
G01X33464Y4098D01*
G01X33418Y4102D01*
G01X33396Y4106D01*
G01X33369Y4111D01*
G01X33341Y4118D01*
G01X33314Y4127D01*
G01X33286Y4137D01*
G01X33259Y4148D01*
G01X33232Y4161D01*
G01X33208Y4175D01*
G01X33185Y4190D01*
G01X33144Y4217D01*
G01X33071Y4144D01*
G01X33103Y4122D01*
G01X33122Y4109D01*
G01X33141Y4097D01*
G01X33181Y4075D01*
G01X33221Y4055D01*
G01X33263Y4037D01*
G01X33285Y4029D01*
G01X33306Y4022D01*
G01X33329Y4015D01*
G01X33351Y4009D01*
G01X33376Y4003D01*
G01X33397Y3998D01*
G01X33415Y3994D01*
G01X33433Y3992D01*
G01X33452Y3991D01*
G01X33473Y3990D01*
G01X33500Y3991D01*
G01X33532Y3992D01*
G01X33564Y3992D01*
G01X33589Y3994D01*
G01X33611Y3995D01*
G01X33630Y3997D01*
G01X33647Y4000D01*
G01X33664Y4004D01*
G01X33682Y4009D01*
G01X33703Y4015D01*
G01X33733Y4024D01*
G01X33761Y4034D01*
G01X33788Y4044D01*
G01X33813Y4055D01*
G01X33837Y4067D01*
G01X33860Y4080D01*
G01X33884Y4093D01*
G01X33907Y4109D01*
G01X33927Y4122D01*
G01X33946Y4136D01*
G01X33964Y4150D01*
G01X34000Y4180D01*
G01X34017Y4196D01*
G01X34049Y4230D01*
G01X34079Y4264D01*
G01X34092Y4282D01*
G01X34106Y4301D01*
G01X34118Y4319D01*
G01X34131Y4338D01*
G01X34142Y4358D01*
G01X34153Y4377D01*
G01X34163Y4397D01*
G01X34172Y4418D01*
G01X34181Y4438D01*
G01X34197Y4480D01*
G01X34203Y4501D01*
G01X34209Y4523D01*
G01X34214Y4544D01*
G01X34219Y4566D01*
G01X34223Y4588D01*
G01X34226Y4610D01*
G01X34228Y4632D01*
G01X34230Y4656D01*
G01X34231Y4680D01*
G01X34231Y4726D01*
G01X34230Y4749D01*
G01X34228Y4772D01*
G01X34226Y4794D01*
G01X34222Y4816D01*
G01X34219Y4838D01*
G01X34214Y4860D01*
G01X34209Y4881D01*
G01X34204Y4903D01*
G01X34197Y4923D01*
G01X34190Y4944D01*
G01X34174Y4984D01*
G01X34165Y5004D01*
G01X34155Y5024D01*
G01X34122Y5081D01*
G01X34109Y5100D01*
G01X34096Y5118D01*
G01X34068Y5154D01*
G01X34052Y5171D01*
G01X34037Y5189D01*
G01X34020Y5206D01*
G01X33984Y5240D01*
G01X33965Y5256D01*
G01X33927Y5286D01*
G01X33907Y5300D01*
G01X33886Y5313D01*
G01X33866Y5325D01*
G01X33844Y5336D01*
G01X33823Y5348D01*
G01X33801Y5358D01*
G01X33755Y5376D01*
G01X33707Y5392D01*
G01X33683Y5399D01*
G01X33661Y5404D01*
G01X33642Y5409D01*
G01X33606Y5415D01*
G01X33588Y5416D01*
G01X33568Y5417D01*
G01X33545Y5418D01*
G37*
G36*
G01X33479Y5045D02*
G01X33359Y5045D01*
G01X33292Y5044D01*
G01X33257Y5043D01*
G01X33244Y5039D01*
G01X33245Y5033D01*
G01X33251Y5025D01*
G01X33260Y5012D01*
G01X33273Y4995D01*
G01X33287Y4977D01*
G01X33308Y4951D01*
G01X33327Y4926D01*
G01X33346Y4903D01*
G01X33364Y4880D01*
G01X33380Y4860D01*
G01X33395Y4841D01*
G01X33409Y4823D01*
G01X33420Y4808D01*
G01X33430Y4795D01*
G01X33439Y4784D01*
G01X33445Y4776D01*
G01X33449Y4771D01*
G01X33457Y4760D01*
G01X33468Y4745D01*
G01X33481Y4728D01*
G01X33496Y4710D01*
G01X33510Y4691D01*
G01X33523Y4674D01*
G01X33536Y4659D01*
G01X33546Y4646D01*
G01X33554Y4637D01*
G01X33563Y4626D01*
G01X33572Y4614D01*
G01X33579Y4604D01*
G01X33587Y4594D01*
G01X33596Y4582D01*
G01X33605Y4571D01*
G01X33613Y4561D01*
G01X33622Y4550D01*
G01X33635Y4534D01*
G01X33648Y4517D01*
G01X33662Y4499D01*
G01X33694Y4457D01*
G01X33357Y4457D01*
G01X33317Y4456D01*
G01X33285Y4455D01*
G01X33261Y4454D01*
G01X33245Y4453D01*
G01X33235Y4451D01*
G01X33232Y4450D01*
G01X33233Y4444D01*
G01X33237Y4436D01*
G01X33243Y4425D01*
G01X33250Y4413D01*
G01X33269Y4384D01*
G01X33766Y4384D01*
G01X33789Y4385D01*
G01X33806Y4386D01*
G01X33818Y4389D01*
G01X33826Y4392D01*
G01X33830Y4396D01*
G01X33830Y4401D01*
G01X33827Y4407D01*
G01X33822Y4415D01*
G01X33814Y4424D01*
G01X33806Y4434D01*
G01X33795Y4446D01*
G01X33788Y4455D01*
G01X33780Y4465D01*
G01X33772Y4476D01*
G01X33762Y4488D01*
G01X33751Y4502D01*
G01X33738Y4519D01*
G01X33722Y4538D01*
G01X33705Y4561D01*
G01X33684Y4587D01*
G01X33661Y4617D01*
G01X33634Y4652D01*
G01X33603Y4692D01*
G01X33589Y4710D01*
G01X33573Y4731D01*
G01X33556Y4753D01*
G01X33537Y4776D01*
G01X33501Y4822D01*
G01X33483Y4844D01*
G01X33466Y4865D01*
G01X33451Y4884D01*
G01X33438Y4901D01*
G01X33426Y4915D01*
G01X33418Y4926D01*
G01X33408Y4938D01*
G01X33394Y4959D01*
G01X33392Y4964D01*
G01X33397Y4967D01*
G01X33410Y4969D01*
G01X33431Y4971D01*
G01X33526Y4971D01*
G01X33514Y4990D01*
G01X33508Y4998D01*
G01X33502Y5008D01*
G01X33495Y5018D01*
G01X33490Y5026D01*
G01X33479Y5045D01*
G37*
G36*
G01X33664Y5045D02*
G01X33572Y5045D01*
G01X33593Y5009D01*
G01X33613Y4975D01*
G01X33801Y4971D01*
G01X33786Y4996D01*
G01X33779Y5007D01*
G01X33773Y5017D01*
G01X33768Y5026D01*
G01X33764Y5033D01*
G01X33757Y5039D01*
G01X33742Y5043D01*
G01X33713Y5044D01*
G01X33664Y5045D01*
G37*

%LPD*%
G54D10*
G01X2050Y17600D02*
G01X3050Y16600D01*
G01X2050Y18600D02*
G01X3050Y17600D01*
G01X2100Y18550D02*
G01X2050Y18600D01*
G01X2050Y19600D02*
G01X3050Y18600D01*
G01X2100Y21550D02*
G01X3050Y20600D01*
G01X2050Y20600D02*
G01X3050Y19600D01*
G01X30550Y11300D02*
G01X30600Y24800D01*
G01X32682Y10373D02*
G01X32882Y10373D01*
G01X33132Y10623D01*
G01X33132Y13123D01*
G01X31082Y15123D01*
G01X31082Y24973D01*
G01X30850Y25250D01*
G01X30350Y25250D01*
G01X29600Y24800D01*
G01X30150Y10850D02*
G01X30150Y24350D01*
G01X29100Y24350D01*
G01X29100Y25000D01*
G01X29400Y25250D01*
G01X29800Y25250D01*
G01X30600Y25800D01*
G01X28600Y25800D02*
G01X29131Y26273D01*
G01X30857Y26273D01*
G01X31081Y26023D01*
G01X31081Y25523D01*
G01X31400Y25250D01*
G01X31850Y25250D01*
G01X32050Y25000D01*
G01X32050Y24315D01*
G01X31357Y23623D01*
G01X31357Y15173D01*
G01X33300Y13250D01*
G01X33300Y10250D01*
G01X32900Y9850D01*
G01X27132Y12723D02*
G01X27132Y24174D01*
G01X26600Y24800D01*
G01X27600Y24800D02*
G01X28082Y24223D01*
G01X28881Y24223D01*
G01X29950Y23100D01*
G01X29950Y11700D01*
G01X29600Y11300D01*
G01X26682Y12773D02*
G01X26732Y23923D01*
G01X26182Y24373D01*
G01X26082Y24473D01*
G01X26082Y25224D01*
G01X25600Y25800D01*
G01X25600Y24800D02*
G01X24832Y23973D01*
G01X24832Y19023D01*
G01X24600Y25800D02*
G01X24032Y25173D01*
G01X24032Y24373D01*
G01X23882Y24223D01*
G01X23882Y13573D01*
G01X23800Y13500D01*
G01X21600Y25800D02*
G01X22132Y25273D01*
G01X22832Y25273D01*
G01X23100Y25050D01*
G01X23100Y24700D01*
G01X22600Y24800D02*
G01X23282Y24023D01*
G01X23282Y23823D01*
G01X23282Y18823D01*
G01X23600Y24800D02*
G01X23582Y17723D01*
G01X22132Y16273D01*
G01X22132Y15373D01*
G01X21132Y14223D01*
G01X19982Y14223D01*
G01X17750Y12400D01*
G01X16382Y12373D01*
G01X24600Y24800D02*
G01X24182Y24323D01*
G01X24182Y12373D01*
G01X16600Y24800D02*
G01X17032Y24273D01*
G01X22082Y24273D01*
G01X22482Y23773D01*
G01X22532Y19123D01*
G01X21632Y18223D01*
G01X23550Y11300D02*
G01X23432Y11673D01*
G01X23432Y14273D01*
G01X23632Y14523D01*
G01X24550Y11300D02*
G01X24600Y12750D01*
G01X24882Y13023D01*
G01X24900Y16400D01*
G01X25132Y16623D01*
G01X26550Y11300D02*
G01X26600Y12350D01*
G01X26331Y12617D01*
G01X26331Y23673D01*
G01X26500Y23800D01*
G01X27550Y11300D02*
G01X26682Y12773D01*
G01X27132Y12723D02*
G01X28550Y11300D01*
G01X24632Y24223D02*
G01X24482Y24073D01*
G01X24482Y24073D02*
G01X24482Y13373D01*
G01X27732Y18423D02*
G01X28682Y18423D01*
G01X29582Y25723D02*
G01X29132Y25273D01*
G01X27232Y25273D01*
G01X27082Y25123D01*
G01X27082Y24523D01*
G01X28832Y24023D02*
G01X27932Y24023D01*
G01X27582Y23673D01*
G01X27582Y18673D01*
G01X27332Y23673D02*
G01X27332Y16073D01*
G01X27532Y18173D02*
G01X28532Y18173D01*
G01X26932Y15623D02*
G01X26932Y23623D01*
G01X26932Y13173D02*
G01X26932Y15323D01*
G01X31600Y10300D02*
G01X31150Y10850D01*
G01X30150Y10850D01*
G01X14600Y11300D02*
G01X15932Y12623D01*
G01X17732Y12623D01*
G01X19882Y14423D01*
G01X21082Y14423D01*
G01X21882Y15373D01*
G01X21932Y16323D01*
G01X23282Y17673D01*
G01X23282Y18823D01*
G01X17350Y11850D02*
G01X19982Y13973D01*
G01X21132Y13973D01*
G01X22332Y15323D01*
G01X22332Y16173D01*
G01X15600Y11300D02*
G01X16382Y12373D01*
G01X17600Y10300D02*
G01X17150Y10905D01*
G01X17150Y11650D01*
G01X17350Y11850D01*
G01X18600Y11300D02*
G01X18550Y12250D01*
G01X20132Y13773D01*
G01X21282Y13773D01*
G01X22532Y15223D01*
G01X22532Y16323D01*
G01X18600Y10300D02*
G01X19182Y10873D01*
G01X19232Y12573D01*
G01X20282Y13573D01*
G01X21432Y13573D01*
G01X22782Y15173D01*
G01X22782Y16573D01*
G01X20600Y11300D02*
G01X20150Y10850D01*
G01X20150Y9850D01*
G01X22600Y11300D02*
G01X22600Y13900D01*
G01X23532Y15023D01*
G01X23632Y15023D01*
G01X23600Y10300D02*
G01X23150Y10750D01*
G01X23150Y12200D01*
G01X23250Y12300D01*
G01X24600Y10300D02*
G01X24182Y10873D01*
G01X24182Y12498D01*
G01X25600Y10300D02*
G01X26182Y10873D01*
G01X26182Y12023D01*
G01X25582Y12623D01*
G01X25582Y18273D01*
G01X24832Y19023D01*
G01X28600Y10300D02*
G01X29150Y9850D01*
G01X32900Y9850D01*
G01X20600Y10300D02*
G01X21181Y10923D01*
G01X21200Y11700D01*
G01X20650Y12650D01*
G01X20550Y12650D01*
G01X21600Y10300D02*
G01X22131Y10823D01*
G01X22131Y11686D01*
G01X21450Y12650D01*
G01X21350Y12650D01*
G54D11*
G01X4300Y7551D02*
G01X4300Y7313D01*
G01X4300Y7438D02*
G01X4323Y7461D01*
G01X4344Y7473D01*
G01X4380Y7473D01*
G01X4401Y7461D01*
G01X4425Y7438D01*
G01X4436Y7405D01*
G01X4436Y7382D01*
G01X4425Y7348D01*
G01X4401Y7325D01*
G01X4380Y7313D01*
G01X4344Y7313D01*
G01X4323Y7325D01*
G01X4300Y7348D01*
G01X4567Y7473D02*
G01X4544Y7461D01*
G01X4523Y7438D01*
G01X4511Y7405D01*
G01X4511Y7382D01*
G01X4523Y7348D01*
G01X4544Y7325D01*
G01X4567Y7313D01*
G01X4602Y7313D01*
G01X4625Y7325D01*
G01X4647Y7348D01*
G01X4659Y7382D01*
G01X4659Y7405D01*
G01X4647Y7438D01*
G01X4625Y7461D01*
G01X4602Y7473D01*
G01X4567Y7473D01*
G01X4768Y7551D02*
G01X4768Y7359D01*
G01X4780Y7325D01*
G01X4802Y7313D01*
G01X4825Y7313D01*
G01X4734Y7473D02*
G01X4814Y7473D01*
G01X4900Y7551D02*
G01X4900Y7313D01*
G01X4900Y7426D02*
G01X4934Y7461D01*
G01X4956Y7473D01*
G01X4990Y7473D01*
G01X5014Y7461D01*
G01X5025Y7426D01*
G01X5025Y7313D01*
G01X5410Y7473D02*
G01X5410Y7313D01*
G01X5410Y7438D02*
G01X5389Y7461D01*
G01X5365Y7473D01*
G01X5331Y7473D01*
G01X5309Y7461D01*
G01X5285Y7438D01*
G01X5275Y7405D01*
G01X5275Y7382D01*
G01X5285Y7348D01*
G01X5309Y7325D01*
G01X5331Y7313D01*
G01X5365Y7313D01*
G01X5389Y7325D01*
G01X5410Y7348D01*
G01X5519Y7551D02*
G01X5519Y7359D01*
G01X5531Y7325D01*
G01X5555Y7313D01*
G01X5577Y7313D01*
G01X5485Y7473D02*
G01X5565Y7473D01*
G01X5884Y7473D02*
G01X5860Y7461D01*
G01X5839Y7438D01*
G01X5827Y7405D01*
G01X5827Y7382D01*
G01X5839Y7348D01*
G01X5860Y7325D01*
G01X5884Y7313D01*
G01X5918Y7313D01*
G01X5940Y7325D01*
G01X5964Y7348D01*
G01X5975Y7382D01*
G01X5975Y7405D01*
G01X5964Y7438D01*
G01X5940Y7461D01*
G01X5918Y7473D01*
G01X5884Y7473D01*
G01X6050Y7473D02*
G01X6050Y7313D01*
G01X6050Y7426D02*
G01X6084Y7461D01*
G01X6106Y7473D01*
G01X6140Y7473D01*
G01X6164Y7461D01*
G01X6175Y7426D01*
G01X6175Y7313D01*
G01X6385Y7438D02*
G01X6364Y7461D01*
G01X6340Y7473D01*
G01X6306Y7473D01*
G01X6284Y7461D01*
G01X6260Y7438D01*
G01X6250Y7405D01*
G01X6250Y7382D01*
G01X6260Y7348D01*
G01X6284Y7325D01*
G01X6306Y7313D01*
G01X6340Y7313D01*
G01X6364Y7325D01*
G01X6385Y7348D01*
G01X6460Y7405D02*
G01X6597Y7405D01*
G01X6597Y7426D01*
G01X6585Y7450D01*
G01X6575Y7461D01*
G01X6552Y7473D01*
G01X6518Y7473D01*
G01X6494Y7461D01*
G01X6472Y7438D01*
G01X6460Y7405D01*
G01X6460Y7382D01*
G01X6472Y7348D01*
G01X6494Y7325D01*
G01X6518Y7313D01*
G01X6552Y7313D01*
G01X6575Y7325D01*
G01X6597Y7348D01*
G01X4300Y8001D02*
G01X4300Y7763D01*
G01X4300Y8001D02*
G01X4380Y8001D01*
G01X4413Y7990D01*
G01X4436Y7967D01*
G01X4448Y7944D01*
G01X4459Y7911D01*
G01X4459Y7855D01*
G01X4448Y7819D01*
G01X4436Y7798D01*
G01X4413Y7775D01*
G01X4380Y7763D01*
G01X4300Y7763D01*
G01X4590Y7923D02*
G01X4567Y7911D01*
G01X4544Y7888D01*
G01X4534Y7855D01*
G01X4534Y7832D01*
G01X4544Y7798D01*
G01X4567Y7775D01*
G01X4590Y7763D01*
G01X4625Y7763D01*
G01X4647Y7775D01*
G01X4669Y7798D01*
G01X4681Y7832D01*
G01X4681Y7855D01*
G01X4669Y7888D01*
G01X4647Y7911D01*
G01X4625Y7923D01*
G01X4590Y7923D01*
G01X4931Y8001D02*
G01X4931Y7763D01*
G01X4931Y8001D02*
G01X5090Y7763D01*
G01X5090Y8001D02*
G01X5090Y7763D01*
G01X5234Y8001D02*
G01X5210Y7990D01*
G01X5189Y7967D01*
G01X5177Y7944D01*
G01X5165Y7911D01*
G01X5165Y7855D01*
G01X5177Y7819D01*
G01X5189Y7798D01*
G01X5210Y7775D01*
G01X5234Y7763D01*
G01X5280Y7763D01*
G01X5302Y7775D01*
G01X5325Y7798D01*
G01X5335Y7819D01*
G01X5347Y7855D01*
G01X5347Y7911D01*
G01X5335Y7944D01*
G01X5325Y7967D01*
G01X5302Y7990D01*
G01X5280Y8001D01*
G01X5234Y8001D01*
G01X5502Y8001D02*
G01X5502Y7763D01*
G01X5422Y8001D02*
G01X5581Y8001D01*
G01X5968Y7888D02*
G01X5944Y7911D01*
G01X5922Y7923D01*
G01X5889Y7923D01*
G01X5865Y7911D01*
G01X5843Y7888D01*
G01X5831Y7855D01*
G01X5831Y7832D01*
G01X5843Y7798D01*
G01X5865Y7775D01*
G01X5889Y7763D01*
G01X5922Y7763D01*
G01X5944Y7775D01*
G01X5968Y7798D01*
G01X6100Y7923D02*
G01X6077Y7911D01*
G01X6055Y7888D01*
G01X6043Y7855D01*
G01X6043Y7832D01*
G01X6055Y7798D01*
G01X6077Y7775D01*
G01X6100Y7763D01*
G01X6134Y7763D01*
G01X6156Y7775D01*
G01X6180Y7798D01*
G01X6190Y7832D01*
G01X6190Y7855D01*
G01X6180Y7888D01*
G01X6156Y7911D01*
G01X6134Y7923D01*
G01X6100Y7923D01*
G01X6265Y7923D02*
G01X6265Y7763D01*
G01X6265Y7876D02*
G01X6300Y7911D01*
G01X6322Y7923D01*
G01X6356Y7923D01*
G01X6380Y7911D01*
G01X6390Y7876D01*
G01X6390Y7763D01*
G01X6465Y7923D02*
G01X6465Y7763D01*
G01X6465Y7876D02*
G01X6500Y7911D01*
G01X6522Y7923D01*
G01X6556Y7923D01*
G01X6580Y7911D01*
G01X6590Y7876D01*
G01X6590Y7763D01*
G01X6665Y7855D02*
G01X6802Y7855D01*
G01X6802Y7876D01*
G01X6790Y7900D01*
G01X6780Y7911D01*
G01X6756Y7923D01*
G01X6722Y7923D01*
G01X6700Y7911D01*
G01X6677Y7888D01*
G01X6665Y7855D01*
G01X6665Y7832D01*
G01X6677Y7798D01*
G01X6700Y7775D01*
G01X6722Y7763D01*
G01X6756Y7763D01*
G01X6780Y7775D01*
G01X6802Y7798D01*
G01X7014Y7888D02*
G01X6990Y7911D01*
G01X6968Y7923D01*
G01X6934Y7923D01*
G01X6910Y7911D01*
G01X6889Y7888D01*
G01X6877Y7855D01*
G01X6877Y7832D01*
G01X6889Y7798D01*
G01X6910Y7775D01*
G01X6934Y7763D01*
G01X6968Y7763D01*
G01X6990Y7775D01*
G01X7014Y7798D01*
G01X7122Y8001D02*
G01X7122Y7809D01*
G01X7134Y7775D01*
G01X7156Y7763D01*
G01X7180Y7763D01*
G01X7089Y7923D02*
G01X7168Y7923D01*
G01X4250Y6551D02*
G01X4250Y6313D01*
G01X4250Y6313D02*
G01X4386Y6313D01*
G01X4517Y6473D02*
G01X4494Y6461D01*
G01X4473Y6438D01*
G01X4461Y6405D01*
G01X4461Y6382D01*
G01X4473Y6348D01*
G01X4494Y6325D01*
G01X4517Y6313D01*
G01X4551Y6313D01*
G01X4575Y6325D01*
G01X4598Y6348D01*
G01X4609Y6382D01*
G01X4609Y6405D01*
G01X4598Y6438D01*
G01X4575Y6461D01*
G01X4551Y6473D01*
G01X4517Y6473D01*
G01X4684Y6473D02*
G01X4730Y6313D01*
G01X4775Y6473D02*
G01X4730Y6313D01*
G01X4775Y6473D02*
G01X4819Y6313D01*
G01X4865Y6473D02*
G01X4819Y6313D01*
G01X5115Y6415D02*
G01X5319Y6415D01*
G01X5740Y6494D02*
G01X5730Y6517D01*
G01X5706Y6540D01*
G01X5684Y6551D01*
G01X5639Y6551D01*
G01X5615Y6540D01*
G01X5593Y6517D01*
G01X5581Y6494D01*
G01X5569Y6461D01*
G01X5569Y6405D01*
G01X5581Y6369D01*
G01X5593Y6348D01*
G01X5615Y6325D01*
G01X5639Y6313D01*
G01X5684Y6313D01*
G01X5706Y6325D01*
G01X5730Y6348D01*
G01X5740Y6369D01*
G01X5872Y6473D02*
G01X5850Y6461D01*
G01X5827Y6438D01*
G01X5815Y6405D01*
G01X5815Y6382D01*
G01X5827Y6348D01*
G01X5850Y6325D01*
G01X5872Y6313D01*
G01X5906Y6313D01*
G01X5930Y6325D01*
G01X5952Y6348D01*
G01X5964Y6382D01*
G01X5964Y6405D01*
G01X5952Y6438D01*
G01X5930Y6461D01*
G01X5906Y6473D01*
G01X5872Y6473D01*
G01X6039Y6473D02*
G01X6039Y6313D01*
G01X6039Y6426D02*
G01X6072Y6461D01*
G01X6094Y6473D01*
G01X6130Y6473D01*
G01X6152Y6461D01*
G01X6164Y6426D01*
G01X6164Y6313D01*
G01X6239Y6473D02*
G01X6239Y6313D01*
G01X6239Y6426D02*
G01X6272Y6461D01*
G01X6294Y6473D01*
G01X6330Y6473D01*
G01X6352Y6461D01*
G01X6364Y6426D01*
G01X6364Y6313D01*
G01X6439Y6405D02*
G01X6575Y6405D01*
G01X6575Y6426D01*
G01X6564Y6450D01*
G01X6552Y6461D01*
G01X6530Y6473D01*
G01X6494Y6473D01*
G01X6472Y6461D01*
G01X6450Y6438D01*
G01X6439Y6405D01*
G01X6439Y6382D01*
G01X6450Y6348D01*
G01X6472Y6325D01*
G01X6494Y6313D01*
G01X6530Y6313D01*
G01X6552Y6325D01*
G01X6575Y6348D01*
G01X6785Y6438D02*
G01X6764Y6461D01*
G01X6740Y6473D01*
G01X6706Y6473D01*
G01X6684Y6461D01*
G01X6660Y6438D01*
G01X6650Y6405D01*
G01X6650Y6382D01*
G01X6660Y6348D01*
G01X6684Y6325D01*
G01X6706Y6313D01*
G01X6740Y6313D01*
G01X6764Y6325D01*
G01X6785Y6348D01*
G01X6894Y6551D02*
G01X6894Y6359D01*
G01X6906Y6325D01*
G01X6930Y6313D01*
G01X6952Y6313D01*
G01X6860Y6473D02*
G01X6940Y6473D01*
G01X7202Y6551D02*
G01X7202Y6313D01*
G01X7202Y6438D02*
G01X7225Y6461D01*
G01X7247Y6473D01*
G01X7281Y6473D01*
G01X7305Y6461D01*
G01X7327Y6438D01*
G01X7339Y6405D01*
G01X7339Y6382D01*
G01X7327Y6348D01*
G01X7305Y6325D01*
G01X7281Y6313D01*
G01X7247Y6313D01*
G01X7225Y6325D01*
G01X7202Y6348D01*
G01X7469Y6473D02*
G01X7447Y6461D01*
G01X7425Y6438D01*
G01X7414Y6405D01*
G01X7414Y6382D01*
G01X7425Y6348D01*
G01X7447Y6325D01*
G01X7469Y6313D01*
G01X7505Y6313D01*
G01X7527Y6325D01*
G01X7550Y6348D01*
G01X7560Y6382D01*
G01X7560Y6405D01*
G01X7550Y6438D01*
G01X7527Y6461D01*
G01X7505Y6473D01*
G01X7469Y6473D01*
G01X7669Y6551D02*
G01X7669Y6359D01*
G01X7681Y6325D01*
G01X7705Y6313D01*
G01X7727Y6313D01*
G01X7635Y6473D02*
G01X7715Y6473D01*
G01X7835Y6551D02*
G01X7835Y6359D01*
G01X7847Y6325D01*
G01X7869Y6313D01*
G01X7893Y6313D01*
G01X7802Y6473D02*
G01X7881Y6473D01*
G01X8025Y6473D02*
G01X8002Y6461D01*
G01X7980Y6438D01*
G01X7968Y6405D01*
G01X7968Y6382D01*
G01X7980Y6348D01*
G01X8002Y6325D01*
G01X8025Y6313D01*
G01X8059Y6313D01*
G01X8081Y6325D01*
G01X8105Y6348D01*
G01X8115Y6382D01*
G01X8115Y6405D01*
G01X8105Y6438D01*
G01X8081Y6461D01*
G01X8059Y6473D01*
G01X8025Y6473D01*
G01X8190Y6473D02*
G01X8190Y6313D01*
G01X8190Y6426D02*
G01X8225Y6461D01*
G01X8247Y6473D01*
G01X8281Y6473D01*
G01X8305Y6461D01*
G01X8315Y6426D01*
G01X8315Y6313D01*
G01X8315Y6426D02*
G01X8350Y6461D01*
G01X8372Y6473D01*
G01X8406Y6473D01*
G01X8430Y6461D01*
G01X8440Y6426D01*
G01X8440Y6313D01*
G01X4250Y9251D02*
G01X4250Y9013D01*
G01X4409Y9251D02*
G01X4409Y9013D01*
G01X4250Y9138D02*
G01X4409Y9138D01*
G01X4484Y9251D02*
G01X4494Y9240D01*
G01X4507Y9251D01*
G01X4494Y9263D01*
G01X4484Y9251D01*
G01X4494Y9173D02*
G01X4494Y9013D01*
G01X4718Y9173D02*
G01X4718Y8990D01*
G01X4706Y8957D01*
G01X4694Y8944D01*
G01X4672Y8934D01*
G01X4639Y8934D01*
G01X4615Y8944D01*
G01X4718Y9138D02*
G01X4694Y9161D01*
G01X4672Y9173D01*
G01X4639Y9173D01*
G01X4615Y9161D01*
G01X4592Y9138D01*
G01X4582Y9105D01*
G01X4582Y9082D01*
G01X4592Y9048D01*
G01X4615Y9025D01*
G01X4639Y9013D01*
G01X4672Y9013D01*
G01X4694Y9025D01*
G01X4718Y9048D01*
G01X4793Y9251D02*
G01X4793Y9013D01*
G01X4793Y9126D02*
G01X4827Y9161D01*
G01X4850Y9173D01*
G01X4884Y9173D01*
G01X4906Y9161D01*
G01X4918Y9126D01*
G01X4918Y9013D01*
G01X5168Y9115D02*
G01X5372Y9115D01*
G01X5793Y9194D02*
G01X5781Y9217D01*
G01X5759Y9240D01*
G01X5735Y9251D01*
G01X5690Y9251D01*
G01X5668Y9240D01*
G01X5644Y9217D01*
G01X5634Y9194D01*
G01X5622Y9161D01*
G01X5622Y9105D01*
G01X5634Y9069D01*
G01X5644Y9048D01*
G01X5668Y9025D01*
G01X5690Y9013D01*
G01X5735Y9013D01*
G01X5759Y9025D01*
G01X5781Y9048D01*
G01X5793Y9069D01*
G01X5925Y9173D02*
G01X5902Y9161D01*
G01X5880Y9138D01*
G01X5868Y9105D01*
G01X5868Y9082D01*
G01X5880Y9048D01*
G01X5902Y9025D01*
G01X5925Y9013D01*
G01X5959Y9013D01*
G01X5981Y9025D01*
G01X6005Y9048D01*
G01X6015Y9082D01*
G01X6015Y9105D01*
G01X6005Y9138D01*
G01X5981Y9161D01*
G01X5959Y9173D01*
G01X5925Y9173D01*
G01X6090Y9173D02*
G01X6090Y9013D01*
G01X6090Y9126D02*
G01X6125Y9161D01*
G01X6147Y9173D01*
G01X6181Y9173D01*
G01X6205Y9161D01*
G01X6215Y9126D01*
G01X6215Y9013D01*
G01X6290Y9173D02*
G01X6290Y9013D01*
G01X6290Y9126D02*
G01X6325Y9161D01*
G01X6347Y9173D01*
G01X6381Y9173D01*
G01X6405Y9161D01*
G01X6415Y9126D01*
G01X6415Y9013D01*
G01X6490Y9105D02*
G01X6627Y9105D01*
G01X6627Y9126D01*
G01X6615Y9150D01*
G01X6605Y9161D01*
G01X6581Y9173D01*
G01X6547Y9173D01*
G01X6525Y9161D01*
G01X6502Y9138D01*
G01X6490Y9105D01*
G01X6490Y9082D01*
G01X6502Y9048D01*
G01X6525Y9025D01*
G01X6547Y9013D01*
G01X6581Y9013D01*
G01X6605Y9025D01*
G01X6627Y9048D01*
G01X6839Y9138D02*
G01X6815Y9161D01*
G01X6793Y9173D01*
G01X6759Y9173D01*
G01X6735Y9161D01*
G01X6714Y9138D01*
G01X6702Y9105D01*
G01X6702Y9082D01*
G01X6714Y9048D01*
G01X6735Y9025D01*
G01X6759Y9013D01*
G01X6793Y9013D01*
G01X6815Y9025D01*
G01X6839Y9048D01*
G01X6947Y9251D02*
G01X6947Y9059D01*
G01X6959Y9025D01*
G01X6981Y9013D01*
G01X7005Y9013D01*
G01X6914Y9173D02*
G01X6993Y9173D01*
G01X7289Y9251D02*
G01X7289Y9059D01*
G01X7300Y9025D01*
G01X7322Y9013D01*
G01X7344Y9013D01*
G01X7255Y9173D02*
G01X7334Y9173D01*
G01X7477Y9173D02*
G01X7455Y9161D01*
G01X7431Y9138D01*
G01X7419Y9105D01*
G01X7419Y9082D01*
G01X7431Y9048D01*
G01X7455Y9025D01*
G01X7477Y9013D01*
G01X7510Y9013D01*
G01X7534Y9025D01*
G01X7556Y9048D01*
G01X7568Y9082D01*
G01X7568Y9105D01*
G01X7556Y9138D01*
G01X7534Y9161D01*
G01X7510Y9173D01*
G01X7477Y9173D01*
G01X7643Y9173D02*
G01X7643Y8934D01*
G01X7643Y9138D02*
G01X7665Y9161D01*
G01X7689Y9173D01*
G01X7722Y9173D01*
G01X7744Y9161D01*
G01X7768Y9138D01*
G01X7780Y9105D01*
G01X7780Y9082D01*
G01X7768Y9048D01*
G01X7744Y9025D01*
G01X7722Y9013D01*
G01X7689Y9013D01*
G01X7665Y9025D01*
G01X7643Y9048D01*
G01X12150Y23355D02*
G01X12150Y22782D01*
G01X12150Y23355D02*
G01X12394Y23355D01*
G01X12477Y23328D01*
G01X12505Y23301D01*
G01X12531Y23246D01*
G01X12531Y23165D01*
G01X12505Y23109D01*
G01X12477Y23082D01*
G01X12394Y23055D01*
G01X12150Y23055D01*
G01X12711Y23355D02*
G01X12739Y23328D01*
G01X12765Y23355D01*
G01X12739Y23382D01*
G01X12711Y23355D01*
G01X12739Y23165D02*
G01X12739Y22782D01*
G01X13365Y23355D02*
G01X13365Y22782D01*
G01X13365Y23355D02*
G01X13611Y23355D01*
G01X13693Y23328D01*
G01X13721Y23301D01*
G01X13747Y23246D01*
G01X13747Y23165D01*
G01X13721Y23109D01*
G01X13693Y23082D01*
G01X13611Y23055D01*
G01X13365Y23055D01*
G01X13927Y23165D02*
G01X13927Y22782D01*
G01X13927Y23001D02*
G01X13955Y23082D01*
G01X14010Y23136D01*
G01X14064Y23165D01*
G01X14146Y23165D01*
G01X14463Y23165D02*
G01X14407Y23136D01*
G01X14353Y23082D01*
G01X14326Y23001D01*
G01X14326Y22946D01*
G01X14353Y22865D01*
G01X14407Y22809D01*
G01X14463Y22782D01*
G01X14544Y22782D01*
G01X14598Y22809D01*
G01X14653Y22865D01*
G01X14681Y22946D01*
G01X14681Y23001D01*
G01X14653Y23082D01*
G01X14598Y23136D01*
G01X14544Y23165D01*
G01X14463Y23165D01*
G01X14969Y23355D02*
G01X14997Y23328D01*
G01X15025Y23355D01*
G01X14997Y23382D01*
G01X14969Y23355D01*
G01X14997Y23165D02*
G01X14997Y22701D01*
G01X14969Y22619D01*
G01X14914Y22592D01*
G01X14860Y22592D01*
G01X15205Y23001D02*
G01X15531Y23001D01*
G01X15531Y23055D01*
G01X15505Y23109D01*
G01X15477Y23136D01*
G01X15422Y23165D01*
G01X15340Y23165D01*
G01X15285Y23136D01*
G01X15231Y23082D01*
G01X15205Y23001D01*
G01X15205Y22946D01*
G01X15231Y22865D01*
G01X15285Y22809D01*
G01X15340Y22782D01*
G01X15422Y22782D01*
G01X15477Y22809D01*
G01X15531Y22865D01*
G01X16039Y23082D02*
G01X15985Y23136D01*
G01X15930Y23165D01*
G01X15847Y23165D01*
G01X15793Y23136D01*
G01X15739Y23082D01*
G01X15711Y23001D01*
G01X15711Y22946D01*
G01X15739Y22865D01*
G01X15793Y22809D01*
G01X15847Y22782D01*
G01X15930Y22782D01*
G01X15985Y22809D01*
G01X16039Y22865D01*
G01X16301Y23355D02*
G01X16301Y22892D01*
G01X16327Y22809D01*
G01X16382Y22782D01*
G01X16436Y22782D01*
G01X16218Y23165D02*
G01X16410Y23165D01*
G01X16753Y23165D02*
G01X16698Y23136D01*
G01X16644Y23082D01*
G01X16617Y23001D01*
G01X16617Y22946D01*
G01X16644Y22865D01*
G01X16698Y22809D01*
G01X16753Y22782D01*
G01X16835Y22782D01*
G01X16889Y22809D01*
G01X16944Y22865D01*
G01X16972Y22946D01*
G01X16972Y23001D01*
G01X16944Y23082D01*
G01X16889Y23136D01*
G01X16835Y23165D01*
G01X16753Y23165D01*
G01X17152Y23165D02*
G01X17152Y22782D01*
G01X17152Y23001D02*
G01X17178Y23082D01*
G01X17234Y23136D01*
G01X17288Y23165D01*
G01X17369Y23165D01*
G01X17969Y23355D02*
G01X17969Y22782D01*
G01X17969Y23355D02*
G01X18214Y23355D01*
G01X18297Y23328D01*
G01X18325Y23301D01*
G01X18352Y23246D01*
G01X18352Y23192D01*
G01X18325Y23136D01*
G01X18297Y23109D01*
G01X18214Y23082D01*
G01X17969Y23082D01*
G01X18160Y23082D02*
G01X18352Y22782D01*
G01X18531Y23001D02*
G01X18859Y23001D01*
G01X18859Y23055D01*
G01X18831Y23109D01*
G01X18805Y23136D01*
G01X18750Y23165D01*
G01X18668Y23165D01*
G01X18614Y23136D01*
G01X18559Y23082D01*
G01X18531Y23001D01*
G01X18531Y22946D01*
G01X18559Y22865D01*
G01X18614Y22809D01*
G01X18668Y22782D01*
G01X18750Y22782D01*
G01X18805Y22809D01*
G01X18859Y22865D01*
G01X19039Y23165D02*
G01X19202Y22782D01*
G01X19365Y23165D02*
G01X19202Y22782D01*
G01X19965Y23246D02*
G01X20021Y23273D01*
G01X20102Y23355D01*
G01X20102Y22782D01*
G01X20310Y22919D02*
G01X20282Y22892D01*
G01X20310Y22865D01*
G01X20336Y22892D01*
G01X20310Y22919D01*
G01X20681Y23355D02*
G01X20598Y23328D01*
G01X20544Y23246D01*
G01X20517Y23109D01*
G01X20517Y23028D01*
G01X20544Y22892D01*
G01X20598Y22809D01*
G01X20681Y22782D01*
G01X20735Y22782D01*
G01X20817Y22809D01*
G01X20872Y22892D01*
G01X20898Y23028D01*
G01X20898Y23109D01*
G01X20872Y23246D01*
G01X20817Y23328D01*
G01X20735Y23355D01*
G01X20681Y23355D01*
G01X19290Y19002D02*
G01X19200Y18763D01*
G01X19290Y19002D02*
G01X19381Y18763D01*
G01X19234Y18842D02*
G01X19347Y18842D01*
G01X19468Y18944D02*
G01X19468Y18957D01*
G01X19480Y18980D01*
G01X19490Y18990D01*
G01X19514Y19002D01*
G01X19559Y19002D01*
G01X19581Y18990D01*
G01X19593Y18980D01*
G01X19605Y18957D01*
G01X19605Y18934D01*
G01X19593Y18911D01*
G01X19569Y18877D01*
G01X19456Y18763D01*
G01X19615Y18763D01*
G01X18340Y19002D02*
G01X18250Y18763D01*
G01X18340Y19002D02*
G01X18431Y18763D01*
G01X18284Y18842D02*
G01X18397Y18842D01*
G01X18506Y18957D02*
G01X18530Y18967D01*
G01X18564Y19002D01*
G01X18564Y18763D01*
G01X17290Y19002D02*
G01X17200Y18763D01*
G01X17290Y19002D02*
G01X17381Y18763D01*
G01X17234Y18842D02*
G01X17347Y18842D01*
G01X17525Y19002D02*
G01X17490Y18990D01*
G01X17468Y18957D01*
G01X17456Y18900D01*
G01X17456Y18865D01*
G01X17468Y18809D01*
G01X17490Y18775D01*
G01X17525Y18763D01*
G01X17547Y18763D01*
G01X17581Y18775D01*
G01X17605Y18809D01*
G01X17615Y18865D01*
G01X17615Y18900D01*
G01X17605Y18957D01*
G01X17581Y18990D01*
G01X17547Y19002D01*
G01X17525Y19002D01*
G01X16000Y19002D02*
G01X16000Y18763D01*
G01X16000Y19002D02*
G01X16102Y19002D01*
G01X16135Y18990D01*
G01X16147Y18980D01*
G01X16159Y18957D01*
G01X16159Y18934D01*
G01X16147Y18911D01*
G01X16135Y18900D01*
G01X16102Y18888D01*
G01X16000Y18888D01*
G01X16080Y18888D02*
G01X16159Y18763D01*
G01X16393Y18967D02*
G01X16369Y18990D01*
G01X16335Y19002D01*
G01X16290Y19002D01*
G01X16256Y18990D01*
G01X16234Y18967D01*
G01X16234Y18944D01*
G01X16244Y18923D01*
G01X16256Y18911D01*
G01X16280Y18900D01*
G01X16347Y18877D01*
G01X16369Y18865D01*
G01X16381Y18855D01*
G01X16393Y18832D01*
G01X16393Y18798D01*
G01X16369Y18775D01*
G01X16335Y18763D01*
G01X16290Y18763D01*
G01X16256Y18775D01*
G01X16234Y18798D01*
G01X16547Y19002D02*
G01X16547Y18763D01*
G01X16468Y19002D02*
G01X16627Y19002D01*
G01X15219Y16894D02*
G01X15209Y16917D01*
G01X15185Y16940D01*
G01X15164Y16952D01*
G01X15118Y16952D01*
G01X15094Y16940D01*
G01X15072Y16917D01*
G01X15060Y16894D01*
G01X15050Y16861D01*
G01X15050Y16805D01*
G01X15060Y16769D01*
G01X15072Y16748D01*
G01X15094Y16725D01*
G01X15118Y16713D01*
G01X15164Y16713D01*
G01X15185Y16725D01*
G01X15209Y16748D01*
G01X15219Y16769D01*
G01X15219Y16805D01*
G01X15164Y16805D02*
G01X15219Y16805D01*
G01X15294Y16952D02*
G01X15294Y16713D01*
G01X15294Y16952D02*
G01X15455Y16713D01*
G01X15455Y16952D02*
G01X15455Y16713D01*
G01X15530Y16952D02*
G01X15530Y16713D01*
G01X15530Y16952D02*
G01X15609Y16952D01*
G01X15643Y16940D01*
G01X15665Y16917D01*
G01X15677Y16894D01*
G01X15689Y16861D01*
G01X15689Y16805D01*
G01X15677Y16769D01*
G01X15665Y16748D01*
G01X15643Y16725D01*
G01X15609Y16713D01*
G01X15530Y16713D01*
G01X15052Y17967D02*
G01X15052Y17763D01*
G01X14950Y17865D02*
G01X15155Y17865D01*
G01X15252Y18002D02*
G01X15377Y18002D01*
G01X15309Y17911D01*
G01X15343Y17911D01*
G01X15365Y17900D01*
G01X15377Y17888D01*
G01X15389Y17855D01*
G01X15389Y17832D01*
G01X15377Y17798D01*
G01X15355Y17775D01*
G01X15319Y17763D01*
G01X15285Y17763D01*
G01X15252Y17775D01*
G01X15240Y17786D01*
G01X15230Y17809D01*
G01X15464Y17923D02*
G01X15531Y17763D01*
G01X15600Y17923D02*
G01X15531Y17763D01*
G01X15697Y18002D02*
G01X15822Y18002D01*
G01X15755Y17911D01*
G01X15789Y17911D01*
G01X15810Y17900D01*
G01X15822Y17888D01*
G01X15834Y17855D01*
G01X15834Y17832D01*
G01X15822Y17798D01*
G01X15800Y17775D01*
G01X15765Y17763D01*
G01X15731Y17763D01*
G01X15697Y17775D01*
G01X15685Y17786D01*
G01X15675Y17809D01*
G01X13932Y15776D02*
G01X14023Y15538D01*
G01X14114Y15776D02*
G01X14023Y15538D01*
G01X14212Y15776D02*
G01X14337Y15776D01*
G01X14268Y15684D01*
G01X14302Y15684D01*
G01X14325Y15673D01*
G01X14337Y15663D01*
G01X14348Y15628D01*
G01X14348Y15605D01*
G01X14337Y15571D01*
G01X14314Y15548D01*
G01X14280Y15538D01*
G01X14246Y15538D01*
G01X14212Y15548D01*
G01X14200Y15559D01*
G01X14189Y15582D01*
G01X13202Y13169D02*
G01X13191Y13192D01*
G01X13168Y13215D01*
G01X13146Y13226D01*
G01X13100Y13226D01*
G01X13077Y13215D01*
G01X13055Y13192D01*
G01X13043Y13169D01*
G01X13032Y13134D01*
G01X13032Y13078D01*
G01X13043Y13044D01*
G01X13055Y13021D01*
G01X13077Y12998D01*
G01X13100Y12988D01*
G01X13146Y12988D01*
G01X13168Y12998D01*
G01X13191Y13021D01*
G01X13202Y13044D01*
G01X13437Y13226D02*
G01X13323Y12988D01*
G01X13277Y13226D02*
G01X13437Y13226D01*
G01X1070Y17644D02*
G01X1059Y17667D01*
G01X1036Y17690D01*
G01X1014Y17702D01*
G01X968Y17702D01*
G01X945Y17690D01*
G01X923Y17667D01*
G01X911Y17644D01*
G01X900Y17611D01*
G01X900Y17555D01*
G01X911Y17519D01*
G01X923Y17498D01*
G01X945Y17475D01*
G01X968Y17463D01*
G01X1014Y17463D01*
G01X1036Y17475D01*
G01X1059Y17498D01*
G01X1070Y17519D01*
G01X1070Y17555D01*
G01X1014Y17555D02*
G01X1070Y17555D01*
G01X1145Y17702D02*
G01X1145Y17463D01*
G01X1145Y17702D02*
G01X1305Y17463D01*
G01X1305Y17702D02*
G01X1305Y17463D01*
G01X1380Y17702D02*
G01X1380Y17463D01*
G01X1380Y17702D02*
G01X1459Y17702D01*
G01X1493Y17690D01*
G01X1516Y17667D01*
G01X1527Y17644D01*
G01X1539Y17611D01*
G01X1539Y17555D01*
G01X1527Y17519D01*
G01X1516Y17498D01*
G01X1493Y17475D01*
G01X1459Y17463D01*
G01X1380Y17463D01*
G01X3602Y16667D02*
G01X3602Y16463D01*
G01X3500Y16565D02*
G01X3705Y16565D01*
G01X3802Y16702D02*
G01X3927Y16702D01*
G01X3859Y16611D01*
G01X3893Y16611D01*
G01X3916Y16600D01*
G01X3927Y16588D01*
G01X3939Y16555D01*
G01X3939Y16532D01*
G01X3927Y16498D01*
G01X3905Y16475D01*
G01X3870Y16463D01*
G01X3836Y16463D01*
G01X3802Y16475D01*
G01X3791Y16486D01*
G01X3780Y16509D01*
G01X4014Y16623D02*
G01X4082Y16463D01*
G01X4150Y16623D02*
G01X4082Y16463D01*
G01X4248Y16702D02*
G01X4373Y16702D01*
G01X4305Y16611D01*
G01X4339Y16611D01*
G01X4361Y16600D01*
G01X4373Y16588D01*
G01X4384Y16555D01*
G01X4384Y16532D01*
G01X4373Y16498D01*
G01X4350Y16475D01*
G01X4316Y16463D01*
G01X4282Y16463D01*
G01X4248Y16475D01*
G01X4236Y16486D01*
G01X4225Y16509D01*
G01X3214Y21302D02*
G01X3214Y21119D01*
G01X3202Y21086D01*
G01X3191Y21075D01*
G01X3168Y21063D01*
G01X3145Y21063D01*
G01X3123Y21075D01*
G01X3111Y21086D01*
G01X3100Y21119D01*
G01X3100Y21142D01*
G01X3300Y21244D02*
G01X3300Y21257D01*
G01X3311Y21280D01*
G01X3323Y21290D01*
G01X3345Y21302D01*
G01X3391Y21302D01*
G01X3414Y21290D01*
G01X3425Y21280D01*
G01X3436Y21257D01*
G01X3436Y21234D01*
G01X3425Y21211D01*
G01X3402Y21177D01*
G01X3289Y21063D01*
G01X3448Y21063D01*
G01X2014Y22252D02*
G01X2014Y22069D01*
G01X2002Y22036D01*
G01X1991Y22025D01*
G01X1968Y22013D01*
G01X1945Y22013D01*
G01X1923Y22025D01*
G01X1911Y22036D01*
G01X1900Y22069D01*
G01X1900Y22092D01*
G01X2089Y22207D02*
G01X2111Y22217D01*
G01X2145Y22252D01*
G01X2145Y22013D01*
G01X34980Y14673D02*
G01X35218Y14673D01*
G01X34980Y14673D02*
G01X34980Y14776D01*
G01X34991Y14809D01*
G01X35002Y14821D01*
G01X35025Y14832D01*
G01X35048Y14832D01*
G01X35071Y14821D01*
G01X35082Y14809D01*
G01X35093Y14776D01*
G01X35093Y14673D01*
G01X35093Y14753D02*
G01X35218Y14832D01*
G01X35127Y14907D02*
G01X35127Y15044D01*
G01X35105Y15044D01*
G01X35082Y15032D01*
G01X35071Y15021D01*
G01X35059Y14998D01*
G01X35059Y14965D01*
G01X35071Y14942D01*
G01X35093Y14919D01*
G01X35127Y14907D01*
G01X35150Y14907D01*
G01X35184Y14919D01*
G01X35207Y14942D01*
G01X35218Y14965D01*
G01X35218Y14998D01*
G01X35207Y15021D01*
G01X35184Y15044D01*
G01X35059Y15119D02*
G01X35218Y15188D01*
G01X35059Y15255D02*
G01X35218Y15188D01*
G01X35025Y15505D02*
G01X35014Y15528D01*
G01X34980Y15563D01*
G01X35218Y15563D01*
G01X35162Y15648D02*
G01X35173Y15638D01*
G01X35184Y15648D01*
G01X35173Y15659D01*
G01X35162Y15648D01*
G01X34980Y15803D02*
G01X34991Y15769D01*
G01X35025Y15746D01*
G01X35082Y15734D01*
G01X35116Y15734D01*
G01X35173Y15746D01*
G01X35207Y15769D01*
G01X35218Y15803D01*
G01X35218Y15826D01*
G01X35207Y15859D01*
G01X35173Y15882D01*
G01X35116Y15894D01*
G01X35082Y15894D01*
G01X35025Y15882D01*
G01X34991Y15859D01*
G01X34980Y15826D01*
G01X34980Y15803D01*
G01X32480Y24788D02*
G01X32639Y24673D01*
G01X32639Y24844D01*
G01X32480Y24788D02*
G01X32718Y24788D01*
G01X32480Y25055D02*
G01X32480Y24942D01*
G01X32582Y24930D01*
G01X32571Y24942D01*
G01X32559Y24976D01*
G01X32559Y25009D01*
G01X32571Y25044D01*
G01X32593Y25067D01*
G01X32627Y25078D01*
G01X32650Y25078D01*
G01X32684Y25067D01*
G01X32707Y25044D01*
G01X32718Y25009D01*
G01X32718Y24976D01*
G01X32707Y24942D01*
G01X32696Y24930D01*
G01X32673Y24919D01*
G01X32430Y25688D02*
G01X32589Y25573D01*
G01X32589Y25744D01*
G01X32430Y25688D02*
G01X32668Y25688D01*
G01X32464Y25955D02*
G01X32441Y25944D01*
G01X32430Y25909D01*
G01X32430Y25888D01*
G01X32441Y25853D01*
G01X32475Y25830D01*
G01X32532Y25819D01*
G01X32589Y25819D01*
G01X32634Y25830D01*
G01X32657Y25853D01*
G01X32668Y25888D01*
G01X32668Y25898D01*
G01X32657Y25932D01*
G01X32634Y25955D01*
G01X32600Y25967D01*
G01X32589Y25967D01*
G01X32555Y25955D01*
G01X32532Y25932D01*
G01X32521Y25898D01*
G01X32521Y25888D01*
G01X32532Y25853D01*
G01X32555Y25830D01*
G01X32589Y25819D01*
G01X35197Y1763D02*
G01X35356Y1650D01*
G01X35356Y1819D01*
G01X35197Y1763D02*
G01X35435Y1763D01*
G01X35197Y2032D02*
G01X35197Y1917D01*
G01X35300Y1907D01*
G01X35289Y1917D01*
G01X35277Y1951D01*
G01X35277Y1986D01*
G01X35289Y2019D01*
G01X35310Y2042D01*
G01X35344Y2055D01*
G01X35368Y2055D01*
G01X35402Y2042D01*
G01X35425Y2019D01*
G01X35435Y1986D01*
G01X35435Y1951D01*
G01X35425Y1917D01*
G01X35414Y1907D01*
G01X35390Y1894D01*
G01X35147Y2863D02*
G01X35306Y2750D01*
G01X35306Y2919D01*
G01X35147Y2863D02*
G01X35385Y2863D01*
G01X35181Y3132D02*
G01X35159Y3119D01*
G01X35147Y3086D01*
G01X35147Y3063D01*
G01X35159Y3030D01*
G01X35193Y3007D01*
G01X35250Y2994D01*
G01X35306Y2994D01*
G01X35352Y3007D01*
G01X35375Y3030D01*
G01X35385Y3063D01*
G01X35385Y3075D01*
G01X35375Y3109D01*
G01X35352Y3132D01*
G01X35318Y3142D01*
G01X35306Y3142D01*
G01X35272Y3132D01*
G01X35250Y3109D01*
G01X35239Y3075D01*
G01X35239Y3063D01*
G01X35250Y3030D01*
G01X35272Y3007D01*
G01X35306Y2994D01*
G01X13864Y8451D02*
G01X13864Y8269D01*
G01X13852Y8236D01*
G01X13840Y8225D01*
G01X13818Y8213D01*
G01X13794Y8213D01*
G01X13772Y8225D01*
G01X13760Y8236D01*
G01X13750Y8269D01*
G01X13750Y8292D01*
G01X13960Y8451D02*
G01X14085Y8451D01*
G01X14018Y8361D01*
G01X14052Y8361D01*
G01X14075Y8350D01*
G01X14085Y8338D01*
G01X14097Y8305D01*
G01X14097Y8282D01*
G01X14085Y8248D01*
G01X14064Y8225D01*
G01X14030Y8213D01*
G01X13994Y8213D01*
G01X13960Y8225D01*
G01X13950Y8236D01*
G01X13939Y8259D01*
G01X15185Y4101D02*
G01X15072Y4101D01*
G01X15060Y4000D01*
G01X15072Y4011D01*
G01X15106Y4023D01*
G01X15140Y4023D01*
G01X15175Y4011D01*
G01X15197Y3988D01*
G01X15209Y3955D01*
G01X15209Y3932D01*
G01X15197Y3898D01*
G01X15175Y3875D01*
G01X15140Y3863D01*
G01X15106Y3863D01*
G01X15072Y3875D01*
G01X15060Y3886D01*
G01X15050Y3909D01*
G01X15284Y4101D02*
G01X15375Y3863D01*
G01X15465Y4101D02*
G01X15375Y3863D01*
G01X11255Y2761D02*
G01X11243Y2761D01*
G01X11219Y2773D01*
G01X11209Y2784D01*
G01X11197Y2807D01*
G01X11197Y2851D01*
G01X11209Y2875D01*
G01X11219Y2886D01*
G01X11243Y2898D01*
G01X11265Y2898D01*
G01X11289Y2886D01*
G01X11322Y2863D01*
G01X11435Y2750D01*
G01X11435Y2909D01*
G01X11243Y1800D02*
G01X11231Y1823D01*
G01X11197Y1857D01*
G01X11435Y1857D01*
G01X8655Y25711D02*
G01X8643Y25711D01*
G01X8619Y25723D01*
G01X8609Y25734D01*
G01X8597Y25757D01*
G01X8597Y25802D01*
G01X8609Y25825D01*
G01X8619Y25836D01*
G01X8643Y25848D01*
G01X8665Y25848D01*
G01X8689Y25836D01*
G01X8722Y25813D01*
G01X8835Y25700D01*
G01X8835Y25859D01*
G01X8643Y24700D02*
G01X8631Y24723D01*
G01X8597Y24757D01*
G01X8835Y24757D01*
G54D12*
G01X10391Y15200D03*
G01X10608Y15200D03*
G54D13*
G01X13860Y17740D03*
G01X10239Y19759D03*
G01X13860Y17240D03*
G01X13860Y18240D03*
G01X13860Y18740D03*
G01X10239Y19259D03*
G01X10239Y20259D03*
G01X10239Y20759D03*
G01X13860Y19740D03*
G01X13860Y19240D03*
G01X13860Y20240D03*
G01X13860Y20740D03*
G01X10239Y18759D03*
G01X10239Y18259D03*
G01X10239Y17750D03*
G01X10239Y17240D03*
G01X13860Y21240D03*
G01X10239Y21259D03*
G54D14*
G01X-100Y4088D03*
G01X-100Y4344D03*
G01X-100Y4600D03*
G01X-100Y4855D03*
G01X-100Y5111D03*
G54D15*
G01X214Y3300D03*
G01X214Y5899D03*
G54D16*
G01X1100Y4166D03*
G01X1100Y5033D03*
G54D17*
G01X2100Y21550D03*
G01X3050Y20600D03*
G01X3050Y19600D03*
G01X3050Y18600D03*
G01X2050Y20600D03*
G01X2050Y19600D03*
G01X3050Y17600D03*
G01X2050Y18600D03*
G01X2050Y17600D03*
G01X3050Y16600D03*
G54D18*
G01X6700Y16140D03*
G01X6700Y16930D03*
G01X6700Y17719D03*
G01X6700Y18509D03*
G01X6700Y19290D03*
G01X6700Y20080D03*
G01X6700Y20869D03*
G01X6700Y21659D03*
G36*
G01X11875Y2175D02*
G01X11875Y1525D01*
G01X12525Y1525D01*
G01X12525Y2175D01*
G01X11875Y2175D01*
G37*
G54D20*
G01X12200Y2850D03*
G01X13200Y1850D03*
G01X13200Y2850D03*
G01X14200Y1850D03*
G01X14200Y2850D03*
G01X15200Y1850D03*
G01X15200Y2850D03*
G01X16200Y1850D03*
G01X16200Y2850D03*
G01X17200Y1850D03*
G01X17200Y2850D03*
G01X18200Y1850D03*
G01X18200Y2850D03*
G01X19200Y1850D03*
G01X19200Y2850D03*
G01X20200Y1850D03*
G01X20200Y2850D03*
G01X21200Y1850D03*
G01X21200Y2850D03*
G01X22200Y1850D03*
G01X22200Y2850D03*
G01X23200Y1850D03*
G01X23200Y2850D03*
G01X24200Y1850D03*
G01X24200Y2850D03*
G01X25200Y1850D03*
G01X25200Y2850D03*
G01X26200Y1850D03*
G01X26200Y2850D03*
G01X27200Y1850D03*
G01X27200Y2850D03*
G01X28200Y1850D03*
G01X28200Y2850D03*
G01X29200Y1850D03*
G01X29200Y2850D03*
G01X30200Y1850D03*
G01X30200Y2850D03*
G01X31200Y1850D03*
G01X31200Y2850D03*
G01X32200Y1850D03*
G01X32200Y2850D03*
G01X33200Y1850D03*
G01X33200Y2850D03*
G01X34200Y1850D03*
G01X34200Y2850D03*
G36*
G01X9275Y25125D02*
G01X9275Y24475D01*
G01X9925Y24475D01*
G01X9925Y25125D01*
G01X9275Y25125D01*
G37*
G01X9600Y25800D03*
G01X10600Y24800D03*
G01X10600Y25800D03*
G01X11600Y24800D03*
G01X11600Y25800D03*
G01X12600Y24800D03*
G01X12600Y25800D03*
G01X13600Y24800D03*
G01X13600Y25800D03*
G01X14600Y24800D03*
G01X14600Y25800D03*
G01X15600Y24800D03*
G01X15600Y25800D03*
G01X16600Y24800D03*
G01X16600Y25800D03*
G01X17600Y24800D03*
G01X17600Y25800D03*
G01X18600Y24800D03*
G01X18600Y25800D03*
G01X19600Y24800D03*
G01X19600Y25800D03*
G01X20600Y24800D03*
G01X20600Y25800D03*
G01X21600Y24800D03*
G01X21600Y25800D03*
G01X22600Y24800D03*
G01X22600Y25800D03*
G01X23600Y24800D03*
G01X23600Y25800D03*
G01X24600Y24800D03*
G01X24600Y25800D03*
G01X25600Y24800D03*
G01X25600Y25800D03*
G01X26600Y24800D03*
G01X26600Y25800D03*
G01X27600Y24800D03*
G01X27600Y25800D03*
G01X28600Y24800D03*
G01X28600Y25800D03*
G01X29600Y24800D03*
G01X29600Y25800D03*
G01X30600Y24800D03*
G01X30600Y25800D03*
G01X31600Y24800D03*
G01X31600Y25800D03*
G54D21*
G01X13550Y10300D03*
G54D17*
G01X13550Y11300D03*
G01X14550Y10300D03*
G01X14550Y11300D03*
G01X15550Y10300D03*
G01X15550Y11300D03*
G01X16550Y10300D03*
G01X16550Y11300D03*
G01X17550Y10300D03*
G01X17550Y11300D03*
G01X18550Y10300D03*
G01X18550Y11300D03*
G01X19550Y10300D03*
G01X19550Y11300D03*
G01X20550Y10300D03*
G01X20550Y11300D03*
G01X21550Y10300D03*
G01X21550Y11300D03*
G01X22550Y10300D03*
G01X22550Y11300D03*
G01X23550Y10300D03*
G01X23550Y11300D03*
G01X24550Y10300D03*
G01X24550Y11300D03*
G01X25550Y10300D03*
G01X25550Y11300D03*
G01X26550Y10300D03*
G01X26550Y11300D03*
G01X27550Y10300D03*
G01X27550Y11300D03*
G01X28550Y10300D03*
G01X28550Y11300D03*
G01X29550Y10300D03*
G01X29550Y11300D03*
G01X30550Y10300D03*
G01X30550Y11300D03*
G01X31550Y11300D03*
G01X31550Y10300D03*
G01X32550Y11300D03*
G01X32550Y10300D03*
G54D22*
G01X844Y5712D02*
G01X1356Y5712D01*
G01X844Y3487D02*
G01X1356Y3487D01*
M00*
M02*
